<?xml version="1.0" encoding="UTF-8" standalone="no"?>
<!-- Created with Inkscape (http://www.inkscape.org/) -->

<svg
   width="192.90633mm"
   height="192.52469mm"
   viewBox="0 0 192.90633 192.52469"
   version="1.1"
   id="svg5"
   xml:space="preserve"
   inkscape:version="1.2.2 (b0a8486541, 2022-12-01)"
   sodipodi:docname="full_logo.svg"
   inkscape:export-filename="full_logo.png"
   inkscape:export-xdpi="65.83506"
   inkscape:export-ydpi="65.83506"
   xmlns:inkscape="http://www.inkscape.org/namespaces/inkscape"
   xmlns:sodipodi="http://sodipodi.sourceforge.net/DTD/sodipodi-0.dtd"
   xmlns="http://www.w3.org/2000/svg"
   xmlns:svg="http://www.w3.org/2000/svg"><sodipodi:namedview
     id="namedview7"
     pagecolor="#ffffff"
     bordercolor="#666666"
     borderopacity="1.0"
     inkscape:showpageshadow="2"
     inkscape:pageopacity="0.0"
     inkscape:pagecheckerboard="0"
     inkscape:deskcolor="#d1d1d1"
     inkscape:document-units="mm"
     showgrid="false"
     inkscape:zoom="0.70710678"
     inkscape:cx="139.30004"
     inkscape:cy="21.92031"
     inkscape:window-width="1920"
     inkscape:window-height="1015"
     inkscape:window-x="0"
     inkscape:window-y="0"
     inkscape:window-maximized="1"
     inkscape:current-layer="g205" /><defs
     id="defs2" /><g
     inkscape:label="Calque 1"
     inkscape:groupmode="layer"
     id="layer1"
     transform="translate(-8.9563789,-36.068014)"><g
       id="g205"
       transform="translate(221.68799,103.6874)"
       style="display:inline"
       inkscape:label="tarvos"><g
         id="g1457"
         inkscape:label="accent_dark"><path
           id="path1346"
           style="fill:#4b7792;fill-opacity:1;stroke:none;stroke-width:0.264583px;stroke-linecap:butt;stroke-linejoin:miter;stroke-opacity:1"
           d="m 81.611376,193.15765 c -0.609928,2.55634 -1.366436,3.94714 -3.096452,8.89506 -1.051944,3.00861 -2.677733,6.25631 -3.503662,8.04654 1.907474,-3.30601 2.951841,-4.73511 3.44165,-4.73511 0.746097,0 1.502004,-0.67192 3.341398,-2.97088 1.65466,-2.06807 1.833521,-3.75543 1.697571,-4.14962 -0.13595,-0.39417 -0.355879,-0.53798 -0.985986,-0.76481 -1.256247,-0.43793 -1.499897,-1.31869 -1.01906,-3.68143 0.03745,-0.184 0.08,-0.40492 0.124541,-0.63975 z"
           transform="translate(-221.68799,-103.6874)" /><path
           id="path1344"
           style="fill:#4b7792;fill-opacity:1;stroke:none;stroke-width:0.264583px;stroke-linecap:butt;stroke-linejoin:miter;stroke-opacity:1"
           d="m 53.79912,133.83466 c -0.109602,0.029 -1.361466,1.11632 -2.764173,2.41794 -4.037522,3.74651 -7.186778,6.20376 -12.005468,9.3679 l -4.475696,2.93884 1.455725,4.55889 h 5.17e-4 c -0.490998,-1.70989 -0.437078,-2.11345 0.0248,-1.73012 0.83534,0.38129 1.409151,0.44995 2.475818,0.55604 1.066667,0.10608 2.565343,0.23527 4.12533,-0.76792 1.559984,-1.00319 8.704569,-6.22584 10.707873,-6.74015 0.50892,-0.13066 0.576967,-0.23838 0.334347,-0.53072 -0.54154,-0.65251 -1.130474,-2.65419 -1.379244,-4.68705 -0.13357,-1.09141 -0.09192,-2.02281 -0.07751,-2.33268 0.0203,-0.43539 0.01799,-1.29282 0.551905,-1.89446 z"
           transform="translate(-221.68799,-103.6874)" /><path
           id="path1342"
           style="display:inline;fill:#4b7792;fill-opacity:1;stroke:none;stroke-width:0.264583px;stroke-linecap:butt;stroke-linejoin:miter;stroke-opacity:1"
           d="m 155.51798,123.70401 c -0.27834,0.0108 -0.55746,0.20295 -0.93483,0.45889 -0.33661,0.31327 -2.39513,2.10949 -3.33416,3.22926 -1.34246,1.60896 -3.65466,11.89185 -1.64021,17.05218 0.16806,0.43052 1.17826,1.13733 1.7942,1.92754 0.42893,0.65444 0.98589,1.4032 1.22422,2.29185 0.70454,2.76027 0.99917,4.27098 1.00717,5.17022 0.0337,3.59083 5.89225,10.64374 9.41545,12.10882 1.06184,0.42921 1.96491,0.71633 2.96726,0.91519 1.27101,0.2484 2.66816,0.61066 3.10472,0.80461 1.11177,0.49393 1.31037,0.47103 0.89193,-0.10129 -4.23176,-5.78791 -5.36116,-7.79056 -7.27346,-12.89534 -1.81889,-4.85551 -2.49762,-8.96782 -3.1166,-18.88722 -0.40562,-6.50029 -0.56216,-7.19455 -2.2717,-10.07587 -0.90868,-1.53151 -1.37011,-2.01674 -1.83399,-1.99884 z"
           transform="translate(-221.68799,-103.6874)" /><path
           style="display:inline;fill:#4b7792;fill-opacity:1;stroke:none;stroke-width:0.264583px;stroke-linecap:butt;stroke-linejoin:miter;stroke-opacity:1"
           d="m 143.10685,119.49496 c -0.20689,-0.0122 -0.57681,1.1827 -1.11828,3.58376 -1.35879,6.02532 -5.67825,16.07794 -9.37927,21.82813 -1.45442,2.25967 -5.51403,6.9672 -9.18807,10.82828 1.78217,-1.55341 4.5192,-3.51272 5.11338,-3.73311 0.59705,-0.22145 1.63326,-0.29848 -0.59945,3.48351 0.42992,-0.54574 0.69343,-0.88669 1.24282,-1.5844 9.99028,-12.68721 13.61125,-20.6002 14.06994,-30.74799 0.10969,-2.42656 0.0658,-3.64595 -0.14107,-3.65818 z"
           transform="translate(-221.68799,-103.6874)"
           id="path1465" /><path
           style="display:inline;fill:#4b7792;fill-opacity:1;stroke:none;stroke-width:0.264583px;stroke-linecap:butt;stroke-linejoin:miter;stroke-opacity:1"
           d="m 136.02924,103.66389 c -0.24527,0.10274 -0.42517,1.81263 -0.77256,5.39192 -0.23304,2.40106 -0.59668,5.13953 -0.80822,6.08541 -0.21154,0.94589 -0.57785,2.6119 -0.8139,3.7021 -0.42354,1.95614 -2.38455,7.57164 -3.61425,10.34873 -1.51886,3.43007 -4.6347,8.64345 -10.10326,16.90542 -8.2879,12.52147 -8.19049,12.31316 -6.22546,13.2948 1.13967,0.56933 1.14703,0.56932 1.77612,5.2e-4 0.76042,-0.68768 2.29905,-2.68902 4.41213,-5.73867 1.03472,-1.49334 2.76801,-3.89347 3.85145,-5.33404 11.7033,-15.56107 15.95372,-28.76111 13.28239,-41.24865 -0.45553,-2.12944 -0.72276,-3.31501 -0.93431,-3.40651 -0.017,-0.007 -0.0337,-0.008 -0.0501,-10e-4 z"
           transform="translate(-221.68799,-103.6874)"
           id="path1463" /><path
           style="display:inline;fill:#4b7792;fill-opacity:1;stroke:none;stroke-width:0.264583px;stroke-linecap:butt;stroke-linejoin:miter;stroke-opacity:1"
           d="m 127.39101,87.765634 c -0.1926,-0.02664 -0.21344,0.82288 -0.0982,2.543514 0.87472,13.058612 -3.80673,30.541492 -10.97143,40.971662 -0.24991,0.3638 -1.5581,2.56646 -2.9068,4.89479 -1.3487,2.32833 -3.00657,5.06677 -3.68401,6.08542 -1.81544,2.72977 -4.18707,7.07082 -6.74222,12.34033 -3.031906,6.25261 -3.269107,7.50907 -0.91726,4.85758 1.66303,-1.87491 13.49545,-17.82311 16.3344,-22.01623 10.98396,-16.22313 14.59522,-32.98998 10.11463,-46.964054 -0.57195,-1.783798 -0.93655,-2.686372 -1.12913,-2.713012 z"
           transform="translate(-221.68799,-103.6874)"
           id="path1340" /><path
           style="display:inline;fill:#4b7792;fill-opacity:1;stroke:none;stroke-width:0.264583px;stroke-linecap:butt;stroke-linejoin:miter;stroke-opacity:1"
           d="m 69.21575,64.830083 c -0.105639,0.9523 -0.633951,1.952135 -1.586983,2.576587 -0.540392,0.35408 -2.580828,0.598783 -4.377511,0.640271 0.266505,0.09687 0.631322,0.184535 1.098124,0.284737 0.42323,0.09085 1.46285,0.230207 1.85105,0.198437 0.14802,-0.01211 0.673578,-0.07232 1.170988,-0.214974 2.104447,-0.60355 3.000628,-2.445812 1.844332,-3.485058 z"
           transform="translate(-221.68799,-103.6874)"
           id="path1470" /><path
           id="path1176"
           style="display:inline;fill:#4b7792;fill-opacity:1;stroke:none;stroke-width:0.264583px;stroke-linecap:butt;stroke-linejoin:miter;stroke-opacity:1"
           d="M 88.223892 45.509815 C 88.222579 45.510921 88.22107 45.511809 88.219758 45.512916 C 88.068217 45.640655 87.918527 45.770716 87.769656 45.902556 C 87.749843 45.920107 87.729995 45.93764 87.710228 45.955266 C 87.578338 46.072828 87.447419 46.192496 87.317487 46.313383 C 87.290742 46.338282 87.264054 46.363273 87.237389 46.388314 C 87.111242 46.506708 86.986127 46.626348 86.861701 46.747982 C 86.834553 46.77454 86.807639 46.801367 86.780569 46.828081 C 86.661156 46.945844 86.542462 47.065871 86.424519 47.186715 C 86.392366 47.219683 86.359932 47.252217 86.327884 47.285417 C 86.219514 47.397597 86.112131 47.511618 86.004906 47.626482 C 85.963402 47.670975 85.921706 47.714907 85.880366 47.759807 C 85.780781 47.867889 85.681908 47.977995 85.583226 48.088469 C 85.538263 48.138836 85.493137 48.188495 85.448351 48.239364 C 85.315662 48.389988 85.18374 48.542632 85.052509 48.697734 C 85.048785 48.702135 85.044863 48.706248 85.04114 48.710653 C 84.897402 48.88073 84.754415 49.053388 84.612226 49.228968 C 83.503456 50.59811 82.584707 51.541419 81.882677 52.048434 C 81.765672 52.132936 81.654711 52.205262 81.549881 52.265475 C 81.44505 52.325688 81.34618 52.373826 81.253775 52.409652 C 80.745707 52.606632 80.427309 52.433959 80.319465 51.884103 C 80.319434 51.883945 80.319496 51.883744 80.319465 51.883586 C 80.30967 51.833562 80.301474 51.780696 80.295177 51.724423 C 80.282582 51.611876 80.277057 51.486869 80.27864 51.349252 C 80.280224 51.211634 80.288984 51.061419 80.304995 50.898633 C 80.338895 50.553727 80.336144 50.342538 80.271923 50.217538 C 80.255867 50.186288 80.235553 50.160203 80.211461 50.13899 C 80.187369 50.117776 80.159086 50.101523 80.126195 50.088864 C 80.060413 50.063545 79.976461 50.053724 79.870913 50.053724 C 79.723107 50.053724 79.531757 50.06809 79.300922 50.095582 C 79.070088 50.123073 78.799885 50.163805 78.493736 50.217021 C 76.656848 50.536318 73.533603 51.302646 69.957307 52.32542 C 69.429293 52.476845 68.826324 52.655735 68.199791 52.848385 C 67.573259 53.041035 66.92337 53.247338 66.301716 53.45455 C 65.680063 53.661761 65.086516 53.869737 64.573139 54.064848 C 64.059762 54.25996 63.626339 54.442317 63.324637 54.598666 C 63.240915 54.639607 62.655314 54.9686 61.920588 55.34384 C 61.664483 55.47465 61.390225 55.610421 61.112885 55.742265 C 60.859732 55.862603 60.603874 55.979467 60.356859 56.084363 C 60.098082 56.194265 59.849014 56.291569 59.622537 56.367033 C 59.396056 56.442491 59.192145 56.496352 59.024124 56.519479 C 58.940113 56.531042 58.865373 56.534689 58.800882 56.529814 C 58.736391 56.52494 58.682386 56.511506 58.640685 56.487956 C 58.631691 56.482793 58.623207 56.476371 58.61433 56.470903 C 58.585204 56.643602 58.558471 56.843885 58.536815 57.107557 C 58.459945 58.043507 57.090961 59.106097 56.07805 59.159111 C 55.065139 59.212121 53.46639 59.026918 52.871528 59.357549 C 48.473858 61.801557 43.332755 63.361293 36.497333 64.354143 C 33.753896 64.752629 32.772402 64.937618 32.718236 65.425395 C 32.805766 65.134099 33.357673 65.051668 34.547582 64.943771 L 36.065835 64.806312 L 36.377444 65.846558 C 36.886534 67.545761 37.625013 68.017938 40.840738 68.701164 C 49.526043 70.546491 55.841938 75.683622 55.103433 80.302007 C 54.524668 83.921418 49.853923 89.266185 46.370633 90.294678 C 44.988838 90.702677 44.796047 91.06414 45.960322 91.06414 C 56.049442 91.06414 64.409244 99.815739 65.526569 111.54713 C 65.913019 115.60451 65.914005 115.60445 66.97661 111.09444 C 68.384035 105.12095 68.779505 99.466831 68.0706 95.450436 C 67.86313 94.274934 67.479085 91.961254 67.216905 90.308631 L 66.739932 87.303646 L 67.372968 86.791016 C 72.310163 82.79311 77.767694 101.22037 74.927029 112.29695 C 74.579059 113.6538 75.278004 113.05749 76.167264 111.23862 C 76.647499 110.25636 77.470474 108.66434 77.996609 107.70085 C 83.115924 98.325849 83.265238 86.283252 78.368163 77.709917 C 76.510333 74.457393 77.073296 73.952667 79.979951 76.26556 C 84.758726 80.068153 88.44007 87.58609 88.753575 94.182813 C 88.927115 97.834529 89.136891 97.857851 90.496621 94.377116 C 93.489586 86.715519 92.932951 79.474323 88.891551 73.49622 C 86.973151 70.6585 86.352044 70.028365 84.388984 68.927507 C 82.700634 67.980701 82.433196 67.517065 82.982351 66.490963 C 83.118141 66.237228 83.640292 64.667642 84.142487 63.002804 C 85.798472 57.513024 88.60763 51.565288 90.19018 50.199451 C 91.676671 48.916526 93.564798 47.752216 95.679768 46.757284 C 93.423478 47.691884 90.61993 49.431883 88.013569 51.757496 C 82.022799 57.102946 80.471112 56.496284 82.181367 53.096432 C 83.691784 50.09385 86.59454 47.178279 88.223892 45.509815 z M 69.363028 59.703264 C 73.44059 59.767374 76.654638 62.090637 78.126834 66.523003 C 78.69825 68.243385 78.566022 68.357194 75.006094 69.20656 C 73.447102 69.578521 71.45351 70.184888 70.575874 70.554281 C 67.506456 71.846184 64.269862 72.305915 62.23013 71.739738 C 61.79357 71.618563 60.900591 71.345067 60.245755 71.132024 C 59.590905 70.918973 57.447777 70.245202 55.483255 69.634957 C 51.593951 68.426819 50.949763 68.064757 51.503653 67.397368 C 51.690869 67.171781 52.008326 66.987057 52.209036 66.987057 C 52.697762 66.987057 57.759868 64.355874 59.26907 63.317514 C 62.711746 60.948891 66.047031 59.762057 68.965636 59.704297 C 69.098938 59.701697 69.231493 59.701164 69.363028 59.703264 z "
           transform="translate(-221.68799,-103.6874)" /><path
           id="path1338"
           style="display:inline;fill:#4b7792;fill-opacity:1;stroke:none;stroke-width:0.264583px;stroke-linecap:butt;stroke-linejoin:miter;stroke-opacity:1"
           d="m 11.054442,63.40433 c -1.2890611,-0.02828 -1.8044308,0.79301 -1.9781738,2.760038 0.1763505,-1.395803 0.5467139,-2.143199 1.1084598,-2.035018 0.710262,0.136785 2.547339,4.264579 3.827156,8.020699 1.625176,1.858832 3.647766,4.775482 3.725354,6.513298 0.191896,-0.880542 -0.08352,-1.937858 -0.86403,-4.076754 -1.558724,-4.271497 0.30976,-5.386377 2.981214,-1.778703 3.214298,4.340771 5.38609,5.414063 3.558956,1.758549 -1.164867,-2.330541 -2.279311,-8.171712 -1.729094,-9.061979 0.03094,-0.05008 0.07701,-0.256726 0.130742,-0.562756 -0.903704,1.441197 -3.258585,1.06662 -7.364409,-0.576192 -1.498216,-0.599464 -2.596142,-0.943632 -3.396175,-0.961182 z"
           transform="translate(-221.68799,-103.6874)" /></g><g
         id="g1475"
         inkscape:label="accent_light"><path
           style="display:inline;fill:#6694ac;fill-opacity:1;stroke-width:0.264583"
           d="m -102.41896,-24.961008 c 1.18298,6.721563 0.40376,28.7414429 -12.88294,49.270894 -2.63158,4.066087 -7.72509,13.111754 -9.15706,16.262057 -3.75704,8.265442 -6.8526,17.3521 -6.8616,21.107755 -9.4e-4,0.45245 0.008,3.461945 0.008,6.248715 0.52671,-2.307027 1.25627,-4.818204 2.33836,-8.188131 2.8145,-8.765192 8.31947,-20.05967 15.02389,-30.823958 10.45278,-16.782418 13.88611,-25.2332821 13.973307,-34.3958337 0.07267,-7.6322523 -0.710597,-13.9261113 -2.441707,-19.4814983 z"
           id="path1420" /><path
           style="display:inline;fill:#6694ac;fill-opacity:1;stroke-width:0.264583"
           d="m -112.48708,-33.244223 c 0.19056,1.39983 0.3019,4.064818 0.16019,5.395536 -0.92865,12.045584 -3.20189,19.4799855 -16.57831,40.354126 -10.51483,16.408565 -15.97231,31.109124 -15.52154,41.810885 0.54849,13.021236 0.77376,14.265877 2.72542,15.639355 -1.50913,-1.121719 -1.61075,-2.047978 -1.56735,-6.943762 0.11569,-13.051714 6.73193,-29.687475 19.92643,-50.102885 8.09715,-12.528445 11.51803,-20.3019014 12.46436,-28.32592 0.35601,-3.018683 -0.18827,-12.481533 -0.28267,-13.081372 -0.0944,-0.599835 -0.5959,-2.057139 -0.96583,-3.439583 -0.12308,-0.459962 -0.24128,-0.8786 -0.3607,-1.30638 z"
           id="path1418" /><path
           style="display:inline;fill:#6694ac;fill-opacity:1;stroke-width:0.264583"
           d="m -196.70985,-41.651979 c -0.23425,0.890964 -0.0328,3.000576 0.57826,5.578988 0.79026,2.361334 2.04611,4.694317 3.89175,7.105509 2.20975,2.886862 3.92366,4.700268 5.99395,6.073015 0.44532,0.295282 1.55079,1.326372 4.87516,1.1498 -2.23067,-0.178239 -4.19777,-1.717945 -4.50361,-1.947684 -0.42318,-0.3179 -1.69658,-1.125018 -2.33422,-1.772502 -5.22046,-5.301126 -6.74299,-11.877429 -7.92716,-14.543815 -0.14316,-0.527276 -0.29054,-1.088834 -0.57413,-1.643311 z"
           id="path211-3" /></g><g
         id="g1481"
         inkscape:label="base"><path
           style="fill:#1b2c36;fill-opacity:1;stroke:none;stroke-width:0.264583px;stroke-linecap:butt;stroke-linejoin:miter;stroke-opacity:1"
           d="m 115.29666,43.309432 c -0.88713,0.03444 -1.34612,1.168915 -2.92385,4.429187 -5.6085,11.589497 -10.15752,15.354423 -20.091801,16.628443 -3.555504,0.455973 -3.588988,0.317493 -0.936894,-3.878833 0.836198,-1.3231 0.876078,-1.347675 3.196704,-1.95492 6.515201,-1.704852 9.624381,-4.971985 13.043131,-13.705106 0.65967,-1.685116 0.88507,-1.639649 -3.69331,-0.745174 -5.373758,1.049862 -10.462326,3.321729 -13.70046,6.116422 -1.582556,1.36584 -4.391705,7.313555 -6.047693,12.803353 -0.502198,1.664844 -1.024346,3.234424 -1.160136,3.488159 -0.549158,1.026105 -0.281723,1.489735 1.406633,2.436544 1.963066,1.100861 2.584161,1.730984 4.502567,4.568713 4.041412,5.978121 4.598044,13.219275 1.60507,20.880896 -1.359736,3.480744 -1.569506,3.457425 -1.743046,-0.194303 -0.313508,-6.596744 -3.994834,-14.114651 -8.773624,-17.917253 -2.906664,-2.312902 -3.469624,-1.808176 -1.611788,1.444357 4.89709,8.573362 4.747776,20.615907 -0.371554,29.990933 -0.526138,0.9635 -1.349107,2.55551 -1.829345,3.53777 -0.88926,1.81887 -1.588205,2.41518 -1.240235,1.05833 2.840674,-11.07661 -2.616851,-29.503852 -7.554061,-25.505934 l -0.633036,0.51263 0.476973,3.004985 c 0.26218,1.652629 0.646225,3.9663 0.853695,5.141805 0.708908,4.016407 0.313438,9.670484 -1.09399,15.644004 -1.062608,4.51001 -1.063591,4.51009 -1.450041,0.45269 -1.117328,-11.731426 -9.477097,-20.48299 -19.566247,-20.48299 -1.164278,0 -0.971487,-0.361463 0.410311,-0.769462 3.483302,-1.028496 8.154032,-6.373248 8.7328,-9.992671 0.738508,-4.618397 -5.577363,-9.75551 -14.262695,-11.600843 -3.215734,-0.683229 -3.954204,-1.155397 -4.463294,-2.854606 l -0.311609,-1.040246 -1.518253,0.137459 c -2.146066,0.194598 -2.223637,0.30302 -1.226799,1.71204 2.529366,3.575227 5.044095,5.57976 9.065597,7.225916 6.761706,2.767827 8.174429,5.934622 4.474145,10.030395 -2.244506,2.484394 -4.547343,3.151041 -11.882479,3.439583 -6.927286,0.2725 -13.890625,1.604162 -13.890625,2.656686 0,0.09308 1.220392,0.61955 2.71198,1.169437 9.63984,3.553827 18.040452,10.735622 20.698478,17.695562 0.786088,2.05835 0.937743,1.68946 1.349271,-3.28611 0.29116,-3.52021 0.829553,-3.48592 2.796729,0.17777 1.320948,2.46016 2.211851,4.83678 4.410067,11.76518 1.232666,3.88514 3.042937,8.55621 3.530017,9.10745 0.12259,0.13878 0.222208,-0.54973 0.222208,-1.53686 0,-0.98331 0.13372,-2.31879 0.29714,-2.96778 0.847038,-3.3639 1.717947,-0.96349 3.271635,9.01548 0.789268,5.06925 4.210094,11.62774 8.693526,16.66875 l 1.176156,1.32291 0.163297,-1.05833 c 2.105576,-13.66715 6.394881,-22.55819 21.797119,-45.18019 8.600696,-12.632239 11.637276,-21.552126 12.135176,-35.65002 0.29584,-8.376389 2.21987,-6.718883 5.22139,4.497917 0.36993,1.382446 0.87143,2.839746 0.96583,3.439583 0.0944,0.599839 0.63868,10.062683 0.28267,13.081372 -0.94633,8.024034 -4.3672,15.797448 -12.464355,28.325918 -13.194534,20.41545 -19.810743,37.05115 -19.926433,50.10289 -0.04931,5.56231 0.08406,5.9993 2.261878,7.42228 1.961826,1.28187 1.957368,1.28415 2.175578,-1.10174 1.606246,-17.5623 7.026654,-31.81044 19.493902,-51.2439 12.81361,-19.97338 15.99305,-31.510626 13.64154,-49.497236 -0.16458,-1.258873 0.61346,-0.315509 1.60301,1.94355 2.90747,6.637619 4.20851,14.218461 4.11551,23.985616 -0.0872,9.16257 -3.52051,17.61338 -13.97331,34.39583 -6.70444,10.76431 -12.209384,22.05875 -15.02389,30.82396 -2.601564,8.10201 -3.236773,11.30832 -3.642671,18.38854 -0.79507,13.8685 -0.843167,13.95998 -4.094841,7.78092 -1.114378,-2.11761 -2.059764,-3.81204 -2.101164,-3.76514 -0.04137,0.0469 -0.27667,1.39495 -0.522448,2.99568 -0.24578,1.60073 -0.635121,3.83724 -0.865581,4.96972 -0.480838,2.36274 -0.237188,3.2435 1.01906,3.68143 0.630108,0.22683 0.850036,0.37063 0.985986,0.76481 0.13595,0.39419 -0.04291,2.08155 -1.697571,4.14962 -1.839396,2.29896 -2.5953,2.97088 -3.341398,2.97088 -0.576028,0 -1.914455,1.96635 -4.527889,6.65127 -1.107118,1.98466 -2.673368,4.69766 -3.480408,6.02858 -2.116984,3.49122 -3.608609,6.38135 -3.436999,6.65902 0.08399,0.13589 3.656164,0.2403 8.208284,0.2403 h 8.059974 l 0.241328,-0.59532 c 0.13277,-0.32742 0.679257,-1.60734 1.214397,-2.84427 0.535138,-1.23692 1.326904,-3.09764 1.759582,-4.13514 0.723618,-1.73511 1.023599,-2.09585 3.738273,-4.49792 1.623258,-1.43633 3.646775,-3.27027 4.496883,-4.0752 l 1.545642,-1.46348 0.800985,-3.43132 c 1.291628,-5.53496 1.421613,-5.31409 -1.419551,-2.41225 -4.9799,5.08622 -4.536533,2.19658 0.778247,-5.07049 2.595944,-3.54952 3.20807,-4.76339 4.16202,-8.2517 1.21609,-4.44686 3.73813,-11.50312 4.98367,-13.94436 1.41984,-2.78285 6.94195,-8.63255 12.87674,-13.64052 3.73473,-3.15148 11.95044,-12.24902 14.15521,-15.67449 3.70103,-5.75019 8.02048,-15.80281 9.37927,-21.82813 1.08295,-4.80213 1.47872,-4.77873 1.25935,0.0744 -0.45869,10.1478 -4.07965,18.06077 -14.06994,30.74799 -5.06279,6.42954 -4.88266,6.02842 -2.58795,5.76399 4.80159,-0.55332 13.41972,0.0404 16.5349,1.13947 1.41968,0.5009 1.41643,0.51105 0.72347,-2.2934 -0.97365,-3.94046 -0.3648,-12.36546 1.03095,-14.2658 1.21956,-1.66045 2.08425,-0.35649 2.80655,4.23333 1.18131,7.5067 2.26541,10.92834 4.80435,15.16394 2.18854,3.65099 6.09158,8.33335 8.46254,10.15131 0.53546,0.41057 5.27151,2.88934 10.52442,5.50871 l 9.55084,4.7625 0.0873,1.5875 c 0.35404,6.44604 -3.88985,26.6538 -5.71955,27.23452 -0.72986,0.23165 -6.14174,10.49211 -6.14174,11.64425 0,0.34222 1.02709,0.37833 7.87032,0.27543 l 7.87084,-0.11834 1.7203,-4.30413 c 2.14436,-5.36412 1.5274,-4.55883 8.00623,-10.44846 l 1.51981,-1.38182 v -4.24057 c 0,-4.80537 -0.0441,-4.87713 -1.56063,-2.53215 -3.28497,5.07949 -3.79516,1.92793 -0.83354,-5.14852 0.70038,-1.67349 1.40854,-3.87615 1.57406,-4.89479 0.28852,-1.77577 1.12488,-18.67952 0.93431,-18.88464 -0.0508,-0.0547 -1.30234,-0.62061 -2.78122,-1.2578 -10.5816,-4.55912 -12.45256,-7.40698 -15.86208,-24.1422 -1.77345,-8.70467 -1.85432,-9.0234 -3.82354,-15.11432 -0.77629,-2.40109 -1.61817,-5.13954 -1.87069,-6.08542 -0.57032,-2.13631 -0.55161,-2.11785 -3.34346,-3.3047 -9.06064,-3.85186 -19.12594,-11.57111 -25.46925,-19.53266 -2.51882,-3.16141 -2.45445,-3.40277 0.69815,-2.61535 2.85105,0.71211 6.32339,1.16459 8.13697,1.06092 l 1.43919,-0.0822 -1.572,-0.971 c -3.36815,-2.080789 -19.69544,-17.813436 -19.69544,-18.978175 0,-0.556689 0.77769,-0.678086 3.83646,-0.597896 5.60463,0.146939 14.89606,-2.139821 10.91406,-2.686141 -5.16254,-0.708285 -11.38132,-3.894506 -18.71927,-9.591146 -6.6785,-5.184686 -6.93259,-5.671672 -2.96106,-5.674072 4.18849,-0.0025 9.5559,-1.027639 11.69231,-2.232939 0.76967,-0.434226 0.56457,-0.547405 -1.41852,-0.784448 -3.46222,-0.413846 -9.52054,-3.071421 -16.38814,-7.188708 -5.13646,-3.079424 -5.56772,-3.747317 -2.89698,-4.485515 7.52642,-2.080322 7.55084,-2.093642 5.15575,-2.854089 -0.83474,-0.265036 -2.51655,-0.949647 -3.73724,-1.521354 -1.17453,-0.550094 -1.86086,-0.925519 -2.39313,-0.904855 z m 12.09435,44.456202 c 0.19258,0.02664 0.55718,0.929212 1.12913,2.713012 4.48059,13.974084 0.86934,30.740904 -10.11463,46.964054 -2.83896,4.19312 -14.67137,20.14132 -16.3344,22.01623 -2.351848,2.65149 -2.114644,1.39504 0.91726,-4.85758 2.55516,-5.26951 4.92678,-9.61055 6.74222,-12.34033 0.67744,-1.01865 2.33531,-3.75709 3.68401,-6.08542 1.3487,-2.32833 2.65689,-4.53099 2.9068,-4.89479 7.16471,-10.43018 11.84616,-27.91304 10.97143,-40.971662 -0.11526,-1.720635 -0.0944,-2.570152 0.0982,-2.543514 z m 8.63823,15.898256 c 0.0164,-0.007 0.0331,-0.006 0.0501,0.001 0.21155,0.0915 0.47878,1.27707 0.93431,3.40651 2.67133,12.48755 -1.57907,25.68757 -13.28239,41.24865 -1.08344,1.44057 -2.81673,3.8407 -3.85145,5.33404 -2.11308,3.04965 -3.65171,5.05099 -4.41213,5.73867 -0.62909,0.5688 -0.63645,0.56881 -1.77612,-5.2e-4 -1.96503,-0.98164 -2.06245,-0.77332 6.22546,-13.2948 5.46857,-8.26198 8.5844,-13.47534 10.10326,-16.90542 1.2297,-2.77709 3.19071,-8.39259 3.61425,-10.34873 0.23605,-1.0902 0.60236,-2.75621 0.8139,-3.7021 0.21154,-0.94588 0.57518,-3.68434 0.80822,-6.08541 0.34739,-3.57929 0.52729,-5.28918 0.77256,-5.39192 z m 19.48874,20.04012 c 0.46388,-0.0179 0.92531,0.46733 1.83399,1.99884 1.70954,2.88132 1.86608,3.57557 2.2717,10.07587 0.61898,9.91941 1.2977,14.0317 3.1166,18.88722 1.9123,5.10478 3.04169,7.10742 7.27346,12.89534 0.41844,0.57232 0.21984,0.59522 -0.89193,0.10129 -0.43656,-0.19395 -1.83371,-0.55621 -3.10472,-0.80461 -1.00235,-0.19886 -1.90541,-0.48598 -2.96726,-0.91519 -3.5232,-1.46509 -9.38175,-8.51799 -9.41545,-12.10882 -0.008,-0.89924 -0.30263,-2.40994 -1.00717,-5.17022 -0.23833,-0.88865 -0.79529,-1.6374 -1.22422,-2.29185 -0.61594,-0.79021 -1.62614,-1.49702 -1.7942,-1.92754 -2.01445,-5.16034 0.29775,-15.44321 1.64021,-17.05218 0.93904,-1.11977 2.99755,-2.91598 3.33416,-3.22926 0.37737,-0.25594 0.65649,-0.44814 0.93483,-0.45889 z"
           transform="translate(-221.68799,-103.6874)"
           id="corps"
           inkscape:label="path127" /><path
           style="fill:#1b2c36;fill-opacity:1;stroke:none;stroke-width:0.264583px;stroke-linecap:butt;stroke-linejoin:miter;stroke-opacity:1"
           d="m 28.005862,48.992806 c -0.0464,-0.0013 -0.100703,0.0026 -0.162781,0.0026 -1.833216,0 -5.054669,7.652375 -5.703527,13.549044 -0.16366,1.487308 -0.36847,2.819543 -0.45527,2.960026 -0.550218,0.890268 0.564226,6.731435 1.729094,9.061979 1.827136,3.655517 -0.344654,2.582226 -3.558956,-1.758549 -2.671456,-3.607678 -4.53994,-2.492798 -2.981214,1.778703 1.176508,3.224067 1.207016,3.990881 0.216008,5.398637 -1.865906,2.650571 -4.876071,1.331976 -5.673039,-2.48512 -1.314448,-6.295531 -0.222693,-7.312627 1.585433,-1.476912 1.214988,3.921363 2.423442,4.681492 2.347144,1.476396 -0.06852,-2.879351 -4.036608,-13.153122 -5.164026,-13.370244 -1.5576274,-0.299969 -1.6447453,5.975103 -0.1999881,14.425993 0.7156981,4.186421 1.9509821,6.409113 3.8426591,6.91534 h 5.17e-4 c 0.949315,0.253643 2.910574,-0.01246 5.27513,-0.715202 1.018648,-0.302734 3.345189,-0.696618 5.159375,-0.956014 9.564412,-1.36753 8.15435,-2.197477 7.56698,-2.945039 -5.03524,-5.529148 -7.472379,-16.456578 -6.851261,-18.819007 0.28359,0.554477 0.430965,1.116035 0.574125,1.643311 1.184178,2.666389 2.706695,9.242684 7.927165,14.543815 0.637638,0.647485 1.911036,1.454602 2.334224,1.772502 0.40483,0.304101 3.720143,2.905541 6.705017,1.603002 3.131954,-1.36672 2.832215,-2.20642 -1.300695,-3.644738 -6.238428,-2.171077 -9.426738,-4.637793 -12.516032,-11.665438 0,0 -1.554959,-3.256793 -1.827279,-4.477246 -0.27406,-1.228409 -0.335897,-2.708879 -0.335897,-2.708879 0.02133,-2.191209 0.215478,-3.614631 0.859896,-6.304008 0.847663,-3.537585 0.932028,-3.795711 0.607198,-3.804936 z"
           transform="translate(-221.68799,-103.6874)"
           id="path1410" /><path
           style="display:inline;fill:#1b2c36;fill-opacity:1;stroke:none;stroke-width:0.264583px;stroke-linecap:butt;stroke-linejoin:miter;stroke-opacity:1"
           d="m 104.13041,36.070598 c -1.15743,-0.0076 -2.4975,0.0033 -4.02094,0.03152 -11.147286,0.206764 -16.509029,1.524055 -25.306981,6.217192 -3.642625,1.9431 -11.69629,8.822698 -13.250354,11.226705 -4.346175,-2.696691 1.312398,-14.684097 0.31999,-15.306141 -3.982955,0.368034 -12.024011,13.758752 -10.182243,16.554578 0.422553,0.645391 1.178196,0.05288 1.161536,-0.402677 0.266849,-2.152519 2.56326,-7.188161 4.084216,-8.145195 0.07536,0.486996 -0.132206,9.186423 1.704952,10.241181 0.667222,0.376789 4.460788,-1.779969 4.684046,-1.889146 1.206818,-0.625398 4.520608,-1.667541 6.63267,-2.273246 4.7684,-1.3637 8.73115,-2.271696 9.913606,-2.271696 0.42219,0 0.501882,0.155095 0.434082,0.844909 -0.256188,2.60457 1.350507,1.981384 4.307231,-1.669665 4.198572,-5.184521 9.01646,-7.956131 17.173119,-9.880534 9.59729,-2.264297 10.44722,-3.224574 2.34507,-3.277836 z"
           transform="translate(-221.68799,-103.6874)"
           id="path384"
           sodipodi:nodetypes="ccsccccccccscsscc" /><path
           style="display:inline;fill:#1b2c36;fill-opacity:1;stroke:none;stroke-width:0.264583px;stroke-linecap:butt;stroke-linejoin:miter;stroke-opacity:1"
           d="m 68.965636,59.704297 c -2.918611,0.05776 -6.253884,1.24459 -9.696566,3.613217 -1.509206,1.038364 -6.571306,3.669543 -7.060034,3.669543 -0.20071,0 -0.518165,0.184724 -0.705383,0.410311 -0.55389,0.667391 0.09029,1.029447 3.979602,2.237589 1.964526,0.610245 4.10765,1.284016 4.7625,1.497067 0.654838,0.213045 1.547815,0.486537 1.984375,0.607714 2.039736,0.566177 5.27632,0.106448 8.345744,-1.185457 0.877638,-0.369393 2.871224,-0.975758 4.43022,-1.347721 3.559934,-0.849368 3.692158,-0.963171 3.12074,-2.683557 -1.519689,-4.575354 -4.895536,-6.903126 -9.161198,-6.818706 z m -1.856734,4.431254 c 0.621065,-0.04101 1.223156,0.114772 1.801957,0.467672 1.594706,0.972313 0.728195,3.061566 -1.539441,3.711918 -0.49741,0.142652 -1.022968,0.202864 -1.170988,0.214974 -0.3882,0.03177 -1.42782,-0.107587 -1.85105,-0.198437 -2.027726,-0.435261 -2.153757,-0.637137 -0.482141,-2.36058 1.118723,-1.153394 2.206553,-1.767191 3.241663,-1.835547 z"
           transform="translate(-221.68799,-103.6874)"
           id="path1322" /><path
           style="display:inline;fill:#1b2c36;fill-opacity:1;stroke:none;stroke-width:0.264583px;stroke-linecap:butt;stroke-linejoin:miter;stroke-opacity:1"
           d="m 53.801704,133.83207 -1.028361,1.1591 c -0.53391,0.60164 -0.531605,1.45907 -0.551905,1.89446 -0.0144,0.30987 -0.05606,1.24127 0.07751,2.33268 0.24877,2.03287 0.837704,4.03454 1.379244,4.68705 0.24262,0.29234 0.174573,0.40006 -0.334347,0.53072 -2.003306,0.51431 -9.147887,5.73696 -10.707873,6.74015 -1.559988,1.00319 -3.058662,0.874 -4.12533,0.76792 -1.066668,-0.10609 -1.640478,-0.17475 -2.475818,-0.55604 -0.856338,-0.7107 -0.328145,1.24094 2.523361,9.32294 5.607298,15.89276 5.117491,14.78473 6.952547,15.71946 0.699608,0.35636 2.06882,1.1405 3.042708,1.74304 3.077824,1.90425 5.911361,3.40307 8.914185,4.71444 1.600726,0.69905 3.075639,1.27976 3.277319,1.29036 0.588308,0.031 -0.220448,-10.45997 -1.038696,-13.47463 -0.13824,-0.50932 -0.251898,-1.31502 -0.252698,-1.79058 -0.0014,-0.81611 -0.114025,-0.91822 -2.000911,-1.81385 -4.636052,-2.20055 -6.374758,-4.85266 -6.074048,-9.26455 0.229508,-3.36715 -0.04864,-3.17961 5.0307,-3.39152 4.180072,-0.17439 9.690185,-0.61736 9.866065,-0.79324 0.0498,-0.0498 -0.670048,-1.08488 -1.599386,-2.30011 -3.801032,-4.97036 -8.30656,-12.02993 -10.035046,-15.72359 z"
           transform="translate(-221.68799,-103.6874)"
           id="path1326"
           inkscape:label="path1326" /><path
           style="display:inline;fill:#1b2c36;fill-opacity:1;stroke:none;stroke-width:0.264583px;stroke-linecap:butt;stroke-linejoin:miter;stroke-opacity:1"
           d="m 131.8512,164.86377 c -5.66464,-0.039 -9.94913,1.34743 -13.30461,4.22713 -2.40612,2.06496 -2.35879,1.80769 -0.94361,5.08961 l 1.20613,2.79622 4.254,2.64066 c 2.3399,1.45234 6.12975,3.68714 8.42171,4.96611 4.80926,2.68368 4.62015,2.35779 3.48661,6.01668 -0.81578,2.63314 -9.35566,19.98027 -10.4495,21.2261 -0.69773,0.79468 -2.92007,4.32283 -6.37067,10.11463 -0.70668,1.18618 -1.28467,2.32752 -1.28467,2.53679 0,0.32404 1.12431,0.36858 7.57318,0.29818 l 7.5737,-0.0827 0.92449,-2.05775 c 0.50864,-1.1317 1.40769,-3.15774 1.99781,-4.50205 0.74593,-1.69924 1.24031,-2.49356 1.62212,-2.60605 0.30205,-0.089 1.44229,-0.7294 2.5337,-1.42368 1.0914,-0.69429 2.52015,-1.54787 3.175,-1.89653 l 1.19062,-0.63407 0.55139,-2.64118 c 0.3032,-1.45281 0.75267,-3.02865 0.99891,-3.50159 0.63095,-1.21186 -0.0837,-1.17947 -1.66243,0.0754 -2.27451,1.808 -1.94703,0.27349 0.67541,-3.16569 0.89003,-1.16722 2.60824,-4.25873 4.56871,-8.22069 1.72817,-3.4925 3.85733,-7.60016 4.73149,-9.12813 1.79578,-3.13883 1.79422,-2.95693 0.031,-3.85041 -7.38536,-3.74243 -9.04589,-6.43727 -8.01708,-13.01057 0.21599,-1.38 0.2159,-1.38005 -4.8612,-2.33629 -3.1875,-0.60036 -6.04738,-0.91247 -8.62222,-0.93018 z"
           transform="translate(-221.68799,-103.6874)"
           id="path1328" /><path
           style="display:inline;fill:#1b2c36;fill-opacity:1;stroke:none;stroke-width:0.264583px;stroke-linecap:butt;stroke-linejoin:miter;stroke-opacity:1"
           d="m 163.43325,225.40891 -12.50156,0.12454 c -13.29596,0.13244 -13.75902,0.17842 -14.23169,1.42162 -0.39436,1.03725 0.0639,1.38908 1.95079,1.49707 3.02181,0.17297 21.9912,0.19217 23.3934,0.0238 l 1.38906,-0.1664 v -1.45056 z"
           transform="translate(-221.68799,-103.6874)"
           id="path1330" /><path
           style="display:inline;fill:#1b2c36;fill-opacity:1;stroke:none;stroke-width:0.264583px;stroke-linecap:butt;stroke-linejoin:miter;stroke-opacity:1"
           d="m 94.307242,225.49211 c -4.417298,0.039 -4.008384,0.34001 -4.298446,1.88619 l -0.181901,0.96945 1.018026,0.11627 c 2.219184,0.25283 21.234659,0.0495 21.513929,-0.22996 0.53416,-0.53464 -0.32666,-2.33988 -1.20716,-2.53163 -0.42212,-0.0919 -5.1983,-0.18123 -10.61382,-0.19843 -2.749551,-0.009 -4.758196,-0.0249 -6.230628,-0.0119 z"
           transform="translate(-221.68799,-103.6874)"
           id="path1332" /><path
           style="display:inline;fill:#1b2c36;fill-opacity:1;stroke:none;stroke-width:0.264583px;stroke-linecap:butt;stroke-linejoin:miter;stroke-opacity:1"
           d="m 59.863866,225.51951 c -2.222706,-0.009 -6.53569,0.15402 -9.311576,0.38292 l -1.888257,0.15606 -0.152446,0.93897 c -0.0838,0.51648 -0.09037,1.03941 -0.01447,1.1622 0.2028,0.32818 12.205342,0.28068 12.82454,-0.0506 0.771778,-0.41305 0.722996,-2.26929 -0.06615,-2.51975 -0.142022,-0.0451 -0.650744,-0.0668 -1.391646,-0.0698 z"
           transform="translate(-221.68799,-103.6874)"
           id="path1334" /><path
           style="display:inline;fill:#1b2c36;fill-opacity:1;stroke:none;stroke-width:0.264583px;stroke-linecap:butt;stroke-linejoin:miter;stroke-opacity:1"
           d="m 194.86493,86.078398 c -1.49419,0.02664 -2.89721,0.135469 -3.74964,0.334863 -5.73135,1.340642 -10.09461,5.310005 -12.23698,11.133171 -1.77201,4.816458 -0.52508,11.153478 3.07164,15.610418 6.13221,7.59878 4.93895,12.76975 -3.23701,14.02653 -1.28478,0.19749 -1.28196,0.53705 0.0331,3.81476 0.56396,1.40573 1.11533,2.96684 1.22473,3.46955 0.10941,0.50272 0.30284,1.19036 0.42994,1.52756 0.27153,0.72039 0.49467,0.67886 3.27319,-0.60565 7.78378,-3.59844 12.04149,-12.4843 10.3358,-21.57129 -0.23218,-1.23693 -0.55539,-3.26099 -0.7183,-4.49792 -0.60805,-4.61683 -2.18143,-3.31885 -3.09438,2.55282 -0.64796,4.16735 -2.03488,3.31795 -2.70423,-1.65572 -0.46712,-3.47091 0.10104,-4.78661 2.86597,-6.63628 0.83444,-0.55823 2.30511,-1.57785 3.26802,-2.26602 0.96291,-0.68816 2.42661,-1.658296 3.25303,-2.155937 1.76103,-1.060435 1.69911,-1.141023 -1.0604,-1.370975 -3.88747,-0.323951 -6.76815,0.803124 -8.86199,3.467492 -1.99466,2.53813 -2.71029,2.23127 -2.09806,-0.89969 1.31417,-6.720663 5.35016,-10.435323 13.60795,-12.523267 l 3.39566,-0.858346 -0.89245,-0.382922 c -0.87154,-0.373848 -3.61526,-0.557553 -6.10557,-0.513147 z"
           transform="translate(-221.68799,-103.6874)"
           id="path1324" /></g></g></g></svg>
