<?xml version="1.0" encoding="UTF-8" standalone="no"?>
<!-- Created with Inkscape (http://www.inkscape.org/) -->

<svg
   width="160.00006mm"
   height="159.99953mm"
   viewBox="0 0 160.00006 159.99953"
   version="1.1"
   id="svg5"
   xml:space="preserve"
   inkscape:version="1.2.2 (b0a8486541, 2022-12-01)"
   sodipodi:docname="icon_logo.svg"
   inkscape:export-filename="../output/icon_logo_128.png"
   inkscape:export-xdpi="20.319992"
   inkscape:export-ydpi="20.319992"
   xmlns:inkscape="http://www.inkscape.org/namespaces/inkscape"
   xmlns:sodipodi="http://sodipodi.sourceforge.net/DTD/sodipodi-0.dtd"
   xmlns="http://www.w3.org/2000/svg"
   xmlns:svg="http://www.w3.org/2000/svg"><sodipodi:namedview
     id="namedview7"
     pagecolor="#ffffff"
     bordercolor="#666666"
     borderopacity="1.0"
     inkscape:showpageshadow="2"
     inkscape:pageopacity="0.0"
     inkscape:pagecheckerboard="0"
     inkscape:deskcolor="#d1d1d1"
     inkscape:document-units="mm"
     showgrid="false"
     inkscape:zoom="0.70710678"
     inkscape:cx="714.88495"
     inkscape:cy="491.43921"
     inkscape:window-width="1662"
     inkscape:window-height="991"
     inkscape:window-x="26"
     inkscape:window-y="23"
     inkscape:window-maximized="0"
     inkscape:current-layer="g205" /><defs
     id="defs2" /><g
     inkscape:label="Calque 1"
     inkscape:groupmode="layer"
     id="layer1"
     transform="translate(13.7102,2.019597)"><g
       id="g205"
       transform="translate(221.68799,103.6874)"
       style="display:inline"
       inkscape:label="tarvos"><g
         id="g1437"
         transform="translate(142.46393,-172.12096)"
         inkscape:label="round"
         style="display:inline"><path
           id="rect315"
           style="display:inline;fill:#ffffff;fill-opacity:1;stroke-width:0.263;stop-color:#000000;stroke-dasharray:none"
           d="m -155.39842,-96.033169 c -38.8398,1.44e-4 -70.32557,31.486138 -70.32543,70.32594 -1.4e-4,38.839802 31.48563,70.325796 70.32543,70.32594 38.84,1.36e-4 70.326076,-31.48594 70.325938,-70.32594 1.38e-4,-38.84 -31.485938,-70.326076 -70.325938,-70.32594 z"
           transform="translate(-142.46394,172.12096)"
           sodipodi:nodetypes="scscs"
           inkscape:label="path315" /><path
           id="path364"
           style="fill:#1b2c36;fill-opacity:1;stroke-width:0.264583;stop-color:#000000"
           d="m -297.86236,66.413963 a 80,80 0 0 0 -79.99977,79.999777 80,80 0 0 0 79.99977,79.99975 80,80 0 0 0 80.00029,-79.99975 80,80 0 0 0 -80.00029,-79.999777 z m 0,9.673829 a 70.325691,70.325691 0 0 1 70.32595,70.325948 70.325691,70.325691 0 0 1 -70.32595,70.32593 70.325691,70.325691 0 0 1 -70.32542,-70.32593 70.325691,70.325691 0 0 1 70.32542,-70.325948 z" /></g><g
         id="g1457"
         inkscape:label="accent_dark"><path
           id="path1344"
           style="fill:#4b7792;fill-opacity:1;stroke:none;stroke-width:0.264583px;stroke-linecap:butt;stroke-linejoin:miter;stroke-opacity:1"
           d="m 53.799247,133.8344 c -0.109602,0.029 -1.361467,1.11632 -2.764172,2.41794 -3.252261,3.01785 -5.941888,5.20319 -9.378239,7.59127 2.660311,0.99526 5.378475,1.82843 8.139554,2.49494 1.501781,-0.95142 2.846095,-1.72263 3.547588,-1.90273 0.508919,-0.13066 0.576966,-0.23837 0.334346,-0.53071 -0.541539,-0.65251 -1.130474,-2.6542 -1.379244,-4.68706 -0.13357,-1.09141 -0.09192,-2.0228 -0.07751,-2.33267 0.0203,-0.43539 0.01799,-1.29282 0.551905,-1.89446 z"
           transform="translate(-221.68799,-103.6874)"
           sodipodi:nodetypes="csccsssccc" /><path
           id="path1340"
           style="display:inline;fill:#4b7792;fill-opacity:1;stroke:none;stroke-width:0.264583px;stroke-linecap:butt;stroke-linejoin:miter;stroke-opacity:1"
           d="m 127.39114,87.76538 c -0.1926,-0.02664 -0.21343,0.822881 -0.0982,2.543514 0.63932,9.544253 -1.69802,21.442606 -5.79499,31.232716 3.4357,-4.35486 6.34411,-9.10091 8.66458,-14.13919 0.58939,-5.92141 0.0571,-11.624052 -1.64227,-16.924028 -0.57195,-1.783796 -0.93655,-2.686372 -1.12913,-2.713012 z"
           transform="translate(-221.68799,-103.6874)"
           sodipodi:nodetypes="scccss" /><path
           style="display:inline;fill:#4b7792;fill-opacity:1;stroke:none;stroke-width:0.264583px;stroke-linecap:butt;stroke-linejoin:miter;stroke-opacity:1"
           d="m 69.21575,64.830083 c -0.105639,0.9523 -0.633951,1.952135 -1.586983,2.576587 -0.540392,0.35408 -2.580828,0.598783 -4.377511,0.640271 0.266505,0.09687 0.631322,0.184535 1.098124,0.284737 0.42323,0.09085 1.46285,0.230207 1.85105,0.198437 0.14802,-0.01211 0.673578,-0.07232 1.170988,-0.214974 2.104447,-0.60355 3.000628,-2.445812 1.844332,-3.485058 z"
           transform="translate(-221.68799,-103.6874)"
           id="path1470" /><path
           id="path1176"
           style="display:inline;fill:#4b7792;fill-opacity:1;stroke:none;stroke-width:0.264583px;stroke-linecap:butt;stroke-linejoin:miter;stroke-opacity:1"
           d="m 88.223892,45.509815 c -0.0013,0.0011 -0.0028,0.002 -0.0041,0.0031 -0.151541,0.127739 -0.301231,0.2578 -0.450102,0.38964 -0.01981,0.01755 -0.03966,0.03508 -0.05943,0.05271 -0.13189,0.117562 -0.262809,0.23723 -0.392741,0.358117 -0.02675,0.0249 -0.05343,0.04989 -0.0801,0.07493 -0.126147,0.118394 -0.251262,0.238034 -0.375688,0.359668 -0.02715,0.02656 -0.05406,0.05338 -0.08113,0.0801 -0.119413,0.117763 -0.238107,0.23779 -0.35605,0.358634 -0.03215,0.03297 -0.06459,0.0655 -0.09664,0.0987 -0.10837,0.11218 -0.215753,0.226201 -0.322978,0.341065 -0.0415,0.04449 -0.0832,0.08842 -0.12454,0.133325 -0.09958,0.108082 -0.198458,0.218188 -0.29714,0.328662 -0.04496,0.05037 -0.09009,0.100026 -0.134875,0.150895 -0.132689,0.150624 -0.264611,0.303268 -0.395842,0.45837 -0.0037,0.0044 -0.0076,0.0085 -0.01137,0.01292 -0.143738,0.170077 -0.286725,0.342735 -0.428914,0.518315 -1.10877,1.369142 -2.027519,2.312451 -2.729549,2.819466 -0.117005,0.0845 -0.227966,0.156828 -0.332796,0.217041 -0.104831,0.06021 -0.203701,0.108351 -0.296106,0.144177 -0.508068,0.19698 -0.826466,0.02431 -0.93431,-0.525549 -3.1e-5,-1.58e-4 3.1e-5,-3.59e-4 0,-5.17e-4 -0.0098,-0.05002 -0.01799,-0.10289 -0.02429,-0.159163 -0.01259,-0.112547 -0.01812,-0.237554 -0.01654,-0.375171 0.0016,-0.137618 0.01034,-0.287833 0.02636,-0.450619 0.0339,-0.344906 0.03115,-0.556095 -0.03307,-0.681095 -0.01606,-0.03125 -0.03637,-0.05733 -0.06046,-0.07855 -0.02409,-0.02121 -0.05237,-0.03747 -0.08527,-0.05013 -0.06578,-0.02532 -0.149734,-0.03514 -0.255282,-0.03514 -0.147806,0 -0.339156,0.01437 -0.569991,0.04186 -0.230834,0.02749 -0.501037,0.06822 -0.807186,0.121439 -1.836888,0.319297 -4.960133,1.085625 -8.536429,2.108399 -0.528014,0.151425 -1.130983,0.330315 -1.757516,0.522965 -0.626532,0.19265 -1.276421,0.398953 -1.898075,0.606165 -0.621653,0.207211 -1.2152,0.415187 -1.728577,0.610298 -0.513377,0.195112 -0.9468,0.377469 -1.248502,0.533818 -0.08372,0.04094 -0.669323,0.369934 -1.404049,0.745174 -0.256105,0.13081 -0.530363,0.266581 -0.807703,0.398425 -0.253153,0.120338 -0.509011,0.237202 -0.756026,0.342098 -0.258777,0.109902 -0.507845,0.207206 -0.734322,0.28267 -0.226481,0.07546 -0.430392,0.129319 -0.598413,0.152446 -0.08401,0.01156 -0.158751,0.01521 -0.223242,0.01034 -0.06449,-0.0049 -0.118496,-0.01831 -0.160197,-0.04186 -0.009,-0.0052 -0.01748,-0.01158 -0.02635,-0.01705 -0.02913,0.172699 -0.05586,0.372982 -0.07752,0.636654 -0.07687,0.93595 -1.445854,1.99854 -2.458765,2.051554 -1.012911,0.05301 -2.61166,-0.132193 -3.206522,0.198438 -4.39767,2.444008 -9.538773,4.003744 -16.374195,4.996594 -2.743437,0.398486 -3.724931,0.583475 -3.779097,1.071252 0.08753,-0.291296 0.639437,-0.373727 1.829346,-0.481624 l 1.518253,-0.137459 0.311609,1.040246 c 0.50909,1.699203 1.247569,2.17138 4.463294,2.854606 8.685305,1.845327 15.0012,6.982458 14.262695,11.600843 -0.578765,3.619411 -5.24951,8.964178 -8.7328,9.992671 -1.381795,0.407999 -1.574586,0.769462 -0.410311,0.769462 10.08912,0 18.448922,8.751599 19.566247,20.48299 0.38645,4.05738 0.387436,4.05732 1.450041,-0.45269 1.407425,-5.97349 1.802895,-11.627609 1.09399,-15.644004 -0.20747,-1.175502 -0.591515,-3.489182 -0.853695,-5.141805 l -0.476973,-3.004985 0.633036,-0.51263 c 4.937195,-3.997906 10.394726,14.429354 7.554061,25.505934 -0.34797,1.35685 0.350975,0.76054 1.240235,-1.05833 0.480235,-0.98226 1.30321,-2.57428 1.829345,-3.53777 5.119315,-9.375001 5.268629,-21.417598 0.371554,-29.990933 -1.85783,-3.252524 -1.294867,-3.75725 1.611788,-1.444357 4.778775,3.802593 8.460119,11.32053 8.773624,17.917253 0.17354,3.651716 0.383316,3.675038 1.743046,0.194303 2.992965,-7.661597 2.43633,-14.902793 -1.60507,-20.880896 -1.9184,-2.83772 -2.539507,-3.467855 -4.502567,-4.568713 -1.68835,-0.946806 -1.955788,-1.410442 -1.406633,-2.436544 0.13579,-0.253735 0.657941,-1.823321 1.160136,-3.488159 1.655985,-5.48978 4.465143,-11.437516 6.047693,-12.803353 1.486491,-1.282925 3.374618,-2.447235 5.489588,-3.442167 -2.25629,0.9346 -5.059838,2.674599 -7.666199,5.000212 -5.99077,5.34545 -7.542457,4.738788 -5.832202,1.338936 1.510417,-3.002582 4.413173,-5.918153 6.042525,-7.586617 z M 69.363028,59.703264 c 4.077562,0.06411 7.29161,2.387373 8.763806,6.819739 0.571416,1.720382 0.439188,1.834191 -3.12074,2.683557 -1.558992,0.371961 -3.552584,0.978328 -4.43022,1.347721 -3.069418,1.291903 -6.306012,1.751634 -8.345744,1.185457 -0.43656,-0.121175 -1.329539,-0.394671 -1.984375,-0.607714 -0.65485,-0.213051 -2.797978,-0.886822 -4.7625,-1.497067 -3.889304,-1.208138 -4.533492,-1.5702 -3.979602,-2.237589 0.187216,-0.225587 0.504673,-0.410311 0.705383,-0.410311 0.488726,0 5.550832,-2.631183 7.060034,-3.669543 3.442676,-2.368623 6.777961,-3.555457 9.696566,-3.613217 0.133302,-0.0026 0.265857,-0.0031 0.397392,-10e-4 z"
           transform="translate(-221.68799,-103.6874)" /><path
           id="path1338"
           style="display:inline;fill:#4b7792;fill-opacity:1;stroke:none;stroke-width:0.264583px;stroke-linecap:butt;stroke-linejoin:miter;stroke-opacity:1"
           d="m 11.054442,63.40433 c -1.2890611,-0.02828 -1.8044308,0.79301 -1.9781738,2.760038 0.1763505,-1.395803 0.5467139,-2.143199 1.1084598,-2.035018 0.710262,0.136785 2.547339,4.264579 3.827156,8.020699 1.625176,1.858832 3.647766,4.775482 3.725354,6.513298 0.191896,-0.880542 -0.08352,-1.937858 -0.86403,-4.076754 -1.558724,-4.271497 0.30976,-5.386377 2.981214,-1.778703 3.214298,4.340771 5.38609,5.414063 3.558956,1.758549 -1.164867,-2.330541 -2.279311,-8.171712 -1.729094,-9.061979 0.03094,-0.05008 0.07701,-0.256726 0.130742,-0.562756 -0.903704,1.441197 -3.258585,1.06662 -7.364409,-0.576192 -1.498216,-0.599464 -2.596142,-0.943632 -3.396175,-0.961182 z"
           transform="translate(-221.68799,-103.6874)" /></g><g
         id="g1475"
         inkscape:label="accent_light"><path
           id="path1420"
           style="display:inline;fill:#6694ac;fill-opacity:1;stroke-width:0.264583"
           d="m -102.41884,-24.961262 c 1.18298,6.721556 0.40375,28.7414639 -12.88293,49.270894 -1.83059,2.828462 -4.83259,8.037549 -6.98459,12.024589 2.07095,-1.105669 4.08523,-2.314344 6.03529,-3.621484 0.74941,-1.26942 1.51598,-2.536867 2.30064,-3.796667 10.45277,-16.782402 13.88611,-25.2332913 13.973304,-34.3958337 0.07267,-7.6322443 -0.710604,-13.9261163 -2.441714,-19.4814983 z"
           sodipodi:nodetypes="csccssc" /><path
           id="path1418"
           style="display:inline;fill:#6694ac;fill-opacity:1;stroke-width:0.264583"
           d="m -112.48696,-33.244477 c 0.19056,1.399828 0.30191,4.064819 0.1602,5.395536 -0.92865,12.045572 -3.20191,19.4800064 -16.57832,40.354126 -7.3315,11.44093 -12.19593,22.046641 -14.3216,31.050301 1.43621,-0.252844 2.8642,-0.5503 4.28191,-0.891935 3.30145,-8.84251 8.48646,-18.744116 15.60266,-29.754773 8.09714,-12.52843254 11.51803,-20.3019091 12.46436,-28.32592 0.35601,-3.01868 -0.18827,-12.481533 -0.28267,-13.081372 -0.0944,-0.599834 -0.59591,-2.05714 -0.96584,-3.439583 -0.12308,-0.459962 -0.24128,-0.878601 -0.3607,-1.30638 z"
           sodipodi:nodetypes="ccsccssssc" /><path
           style="display:inline;fill:#6694ac;fill-opacity:1;stroke-width:0.264583"
           d="m -196.70985,-41.651979 c -0.23425,0.890964 -0.0328,3.000576 0.57826,5.578988 0.79026,2.361334 2.04611,4.694317 3.89175,7.105509 2.20975,2.886862 3.92366,4.700268 5.99395,6.073015 0.44532,0.295282 1.55079,1.326372 4.87516,1.1498 -2.23067,-0.178239 -4.19777,-1.717945 -4.50361,-1.947684 -0.42318,-0.3179 -1.69658,-1.125018 -2.33422,-1.772502 -5.22046,-5.301126 -6.74299,-11.877429 -7.92716,-14.543815 -0.14316,-0.527276 -0.29054,-1.088834 -0.57413,-1.643311 z"
           id="path211-3"
           inkscape:label="path211" /></g><g
         id="g1481"
         inkscape:label="base"><path
           id="corps"
           style="fill:#1b2c36;fill-opacity:1;stroke:none;stroke-width:0.264583px;stroke-linecap:butt;stroke-linejoin:miter;stroke-opacity:1"
           inkscape:label="path127"
           d="m 115.29679,43.309178 c -0.88713,0.03444 -1.34613,1.168919 -2.92386,4.429187 -5.60849,11.589486 -10.15752,15.354424 -20.091794,16.628443 -3.555501,0.455972 -3.588985,0.317489 -0.936894,-3.878833 0.836197,-1.323099 0.87608,-1.347675 3.196704,-1.95492 6.515194,-1.70485 9.624384,-4.971994 13.043134,-13.705106 0.65967,-1.685115 0.88506,-1.639648 -3.69332,-0.745174 -5.37375,1.049861 -10.462322,3.321732 -13.700453,6.116422 -1.582554,1.365839 -4.391706,7.31356 -6.047693,12.803353 -0.502197,1.664842 -1.024346,3.234424 -1.160135,3.488159 -0.549158,1.026104 -0.281722,1.489736 1.406632,2.436544 1.963064,1.10086 2.584163,1.730987 4.502568,4.568713 4.041408,5.978115 4.598041,13.219283 1.60507,20.880896 -1.359735,3.480741 -1.569507,3.457421 -1.743047,-0.194303 -0.313507,-6.596737 -3.994839,-14.114654 -8.773624,-17.917253 -2.906661,-2.312899 -3.469622,-1.808173 -1.611788,1.444357 4.897085,8.573353 4.747771,20.615917 -0.371554,29.990937 -0.526137,0.9635 -1.349108,2.55551 -1.829345,3.53777 -0.889259,1.81886 -1.588204,2.41518 -1.240235,1.05833 C 77.767827,101.2201 72.3103,82.792848 67.373095,86.790762 l -0.633036,0.51263 0.476974,3.004985 c 0.262179,1.652627 0.646224,3.966301 0.853694,5.141805 0.708908,4.016403 0.313437,9.670488 -1.09399,15.644008 -1.062607,4.51 -1.063591,4.51008 -1.450041,0.45268 C 64.40937,99.815459 56.049589,91.063886 45.960449,91.063886 c -1.164277,0 -0.971486,-0.361463 0.410311,-0.769462 3.483298,-1.028495 8.154033,-6.373252 8.7328,-9.992672 C 55.842067,75.68336 49.526188,70.546241 40.840865,68.70091 37.625134,68.017682 36.886661,67.545511 36.377571,65.846304 l -0.311609,-1.040247 -1.518253,0.13746 c -2.146064,0.194598 -2.223636,0.303021 -1.226799,1.71204 2.529364,3.575223 5.044099,5.579761 9.065597,7.225916 6.761699,2.767824 8.174426,5.934626 4.474145,10.030395 -2.244503,2.484392 -4.54735,3.151042 -11.882479,3.439583 -6.927279,0.2725 -13.890625,1.604163 -13.890625,2.656686 0,0.09308 1.220393,0.619551 2.71198,1.169437 9.63983,3.553824 18.040455,10.735626 20.698478,17.695566 0.786087,2.05834 0.937744,1.68946 1.349272,-3.28611 0.291159,-3.52021 0.829554,-3.48592 2.796728,0.17777 1.320947,2.46016 2.211853,4.83729 4.410067,11.76569 1.232665,3.88513 3.042937,8.5557 3.530017,9.10694 0.12259,0.13878 0.222208,-0.54973 0.222208,-1.53686 0,-0.98331 0.13372,-2.31879 0.29714,-2.96778 0.847037,-3.3639 1.717948,-0.96297 3.271635,9.01599 0.789267,5.06924 4.210099,11.62774 8.693526,16.66875 l 0.366903,0.41238 c 0.319119,-0.0135 0.638142,-0.0292 0.957047,-0.047 l 0.0155,-0.10129 c 2.105574,-13.66713 6.394897,-22.55821 21.797119,-45.18018 8.600692,-12.63223 11.637282,-21.552144 12.135182,-35.650024 0.29584,-8.37638 2.21987,-6.718872 5.22138,4.497917 0.36993,1.382445 0.87144,2.839747 0.96584,3.439583 0.0944,0.599839 0.63868,10.062686 0.28267,13.081372 -0.94633,8.024026 -4.36721,15.797462 -12.464361,28.325922 -7.115688,11.00986 -12.300667,20.9107 -15.602149,29.7527 2.507926,-0.60325 4.980763,-1.34403 7.4073,-2.21898 2.988969,-6.95815 6.966994,-14.19754 12.19978,-22.35419 12.81359,-19.97336 15.99305,-31.510648 13.64154,-49.49724 -0.16458,-1.258872 0.61345,-0.315507 1.603,1.94355 2.90747,6.637613 4.20851,14.218471 4.11551,23.985616 -0.0872,9.162564 -3.52051,17.613404 -13.9733,34.395834 -0.78338,1.25775 -1.54671,2.52364 -2.29495,3.79098 6.09696,-4.08736 11.51642,-9.10404 16.06155,-14.86782 4.0931,-9.78729 6.42779,-21.67832 5.78879,-31.217736 -0.11526,-1.720634 -0.0944,-2.570152 0.0982,-2.543514 0.19258,0.02664 0.55718,0.929214 1.12913,2.713012 1.69956,5.300588 2.23199,11.003958 1.64227,16.926098 3.07257,-6.67351 5.08044,-13.787273 5.95055,-21.082433 -2.25595,-2.311221 -3.90054,-4.131603 -3.90054,-4.491716 0,-0.556688 0.77769,-0.678086 3.83646,-0.597896 0.15612,0.0041 0.32427,-4.06e-4 0.48576,0 0.052,-1.083405 0.0788,-2.167867 0.0806,-3.252515 -10e-4,-1.130172 -0.03,-2.260147 -0.0858,-3.38894 -2.58588,-1.478858 -5.3443,-3.352267 -8.2858,-5.635832 -6.67849,-5.184681 -6.93259,-5.671672 -2.96106,-5.674072 3.11012,-0.0019 6.86502,-0.568258 9.46971,-1.352889 -0.1485,-0.633466 -0.30579,-1.26484 -0.47181,-1.893941 -3.57119,-0.808223 -9.02127,-3.307574 -15.11226,-6.959265 -5.13645,-3.079421 -5.56771,-3.747317 -2.89698,-4.485515 7.52642,-2.08032 7.55085,-2.093643 5.15576,-2.854089 -0.83474,-0.265036 -2.51655,-0.949648 -3.73724,-1.521354 -1.17453,-0.550094 -1.86087,-0.925519 -2.39313,-0.904855 z"
           transform="translate(-221.68799,-103.6874)"
           sodipodi:nodetypes="ssssssssssssssssssssccssssssscccssssssssssssssccccssssssccsssssccsssccsscccssccsssss" /><path
           style="fill:#1b2c36;fill-opacity:1;stroke:none;stroke-width:0.264583px;stroke-linecap:butt;stroke-linejoin:miter;stroke-opacity:1"
           d="m 28.005862,48.992806 c -0.0464,-0.0013 -0.100703,0.0026 -0.162781,0.0026 -1.833216,0 -5.054669,7.652375 -5.703527,13.549044 -0.16366,1.487308 -0.36847,2.819543 -0.45527,2.960026 -0.550218,0.890268 0.564226,6.731435 1.729094,9.061979 1.827136,3.655517 -0.344654,2.582226 -3.558956,-1.758549 -2.671456,-3.607678 -4.53994,-2.492798 -2.981214,1.778703 1.176508,3.224067 1.207016,3.990881 0.216008,5.398637 -1.865906,2.650571 -4.876071,1.331976 -5.673039,-2.48512 -1.314448,-6.295531 -0.222693,-7.312627 1.585433,-1.476912 1.214988,3.921363 2.423442,4.681492 2.347144,1.476396 -0.06852,-2.879351 -4.036608,-13.153122 -5.164026,-13.370244 -1.5576274,-0.299969 -1.6447453,5.975103 -0.1999881,14.425993 0.7156981,4.186421 1.9509821,6.409113 3.8426591,6.91534 h 5.17e-4 c 0.949315,0.253643 2.910574,-0.01246 5.27513,-0.715202 1.018648,-0.302734 3.345189,-0.696618 5.159375,-0.956014 9.564412,-1.36753 8.15435,-2.197477 7.56698,-2.945039 -5.03524,-5.529148 -7.472379,-16.456578 -6.851261,-18.819007 0.28359,0.554477 0.430965,1.116035 0.574125,1.643311 1.184178,2.666389 2.706695,9.242684 7.927165,14.543815 0.637638,0.647485 1.911036,1.454602 2.334224,1.772502 0.40483,0.304101 3.720143,2.905541 6.705017,1.603002 3.131954,-1.36672 2.832215,-2.20642 -1.300695,-3.644738 -6.238428,-2.171077 -9.426738,-4.637793 -12.516032,-11.665438 0,0 -1.554959,-3.256793 -1.827279,-4.477246 -0.27406,-1.228409 -0.335897,-2.708879 -0.335897,-2.708879 0.02133,-2.191209 0.215478,-3.614631 0.859896,-6.304008 0.847663,-3.537585 0.932028,-3.795711 0.607198,-3.804936 z"
           transform="translate(-221.68799,-103.6874)"
           id="path1410" /><path
           style="display:inline;fill:#1b2c36;fill-opacity:1;stroke:none;stroke-width:0.264583px;stroke-linecap:butt;stroke-linejoin:miter;stroke-opacity:1"
           d="m 104.13041,36.070598 c -1.15743,-0.0076 -2.4975,0.0033 -4.02094,0.03152 -11.147286,0.206764 -16.509029,1.524055 -25.306981,6.217192 -3.642625,1.9431 -11.69629,8.822698 -13.250354,11.226705 -4.346175,-2.696691 1.312398,-14.684097 0.31999,-15.306141 -3.982955,0.368034 -12.024011,13.758752 -10.182243,16.554578 0.422553,0.645391 1.178196,0.05288 1.161536,-0.402677 0.266849,-2.152519 2.56326,-7.188161 4.084216,-8.145195 0.07536,0.486996 -0.132206,9.186423 1.704952,10.241181 0.667222,0.376789 4.460788,-1.779969 4.684046,-1.889146 1.206818,-0.625398 4.520608,-1.667541 6.63267,-2.273246 4.7684,-1.3637 8.73115,-2.271696 9.913606,-2.271696 0.42219,0 0.501882,0.155095 0.434082,0.844909 -0.256188,2.60457 1.350507,1.981384 4.307231,-1.669665 4.198572,-5.184521 9.01646,-7.956131 17.173119,-9.880534 9.59729,-2.264297 10.44722,-3.224574 2.34507,-3.277836 z"
           transform="translate(-221.68799,-103.6874)"
           id="path384"
           sodipodi:nodetypes="ccsccccccccscsscc" /><path
           style="display:inline;fill:#1b2c36;fill-opacity:1;stroke:none;stroke-width:0.264583px;stroke-linecap:butt;stroke-linejoin:miter;stroke-opacity:1"
           d="m 68.965636,59.704297 c -2.918611,0.05776 -6.253884,1.24459 -9.696566,3.613217 -1.509206,1.038364 -6.571306,3.669543 -7.060034,3.669543 -0.20071,0 -0.518165,0.184724 -0.705383,0.410311 -0.55389,0.667391 0.09029,1.029447 3.979602,2.237589 1.964526,0.610245 4.10765,1.284016 4.7625,1.497067 0.654838,0.213045 1.547815,0.486537 1.984375,0.607714 2.039736,0.566177 5.27632,0.106448 8.345744,-1.185457 0.877638,-0.369393 2.871224,-0.975758 4.43022,-1.347721 3.559934,-0.849368 3.692158,-0.963171 3.12074,-2.683557 -1.519689,-4.575354 -4.895536,-6.903126 -9.161198,-6.818706 z m -1.856734,4.431254 c 0.621065,-0.04101 1.223156,0.114772 1.801957,0.467672 1.594706,0.972313 0.728195,3.061566 -1.539441,3.711918 -0.49741,0.142652 -1.022968,0.202864 -1.170988,0.214974 -0.3882,0.03177 -1.42782,-0.107587 -1.85105,-0.198437 -2.027726,-0.435261 -2.153757,-0.637137 -0.482141,-2.36058 1.118723,-1.153394 2.206553,-1.767191 3.241663,-1.835547 z"
           transform="translate(-221.68799,-103.6874)"
           id="path1322" /><path
           id="path1326"
           style="display:inline;fill:#1b2c36;fill-opacity:1;stroke:none;stroke-width:0.264583px;stroke-linecap:butt;stroke-linejoin:miter;stroke-opacity:1"
           inkscape:label="path1326"
           d="m 53.801831,133.83182 -1.028361,1.1591 c -0.53391,0.60164 -0.531605,1.45907 -0.551905,1.89446 -0.0144,0.30987 -0.05606,1.24126 0.07751,2.33267 0.24877,2.03287 0.837705,4.03455 1.379244,4.68706 0.24262,0.29234 0.174573,0.40005 -0.334346,0.53071 -0.700319,0.1798 -2.041657,0.94891 -3.540353,1.89808 4.121839,0.99364 8.325093,1.61248 12.558407,1.84898 -3.162795,-4.47832 -6.33469,-9.59446 -7.720976,-12.55686 z"
           transform="translate(-221.68799,-103.6874)"
           sodipodi:nodetypes="ccsssscccc" /></g><g
         id="g1552"
         inkscape:label="garanus"
         transform="translate(-221.68799,-103.6874)"
         style="display:inline"><path
           style="fill:#1b2c36;fill-opacity:1;stroke:none;stroke-width:0.10394px;stroke-linecap:butt;stroke-linejoin:miter;stroke-opacity:1"
           d="m 57.249253,13.038871 c 3.186158,2.426387 5.770955,4.617896 7.025253,6.789434 1.312941,-1.713389 5.49762,-4.547718 9.490072,-6.588159 -5.589947,1.869073 -8.36409,3.562075 -9.446563,4.39998 -2.146096,-1.914088 -4.289516,-3.523857 -7.068762,-4.601255 z"
           id="path1493"
           sodipodi:nodetypes="ccccc"
           sodipodi:insensitive="true" /><path
           style="fill:#1b2c36;fill-opacity:1;stroke:none;stroke-width:0.105807px;stroke-linecap:butt;stroke-linejoin:miter;stroke-opacity:1"
           d="m 41.341531,16.82907 c 3.186158,2.514332 5.770955,4.78527 7.025253,7.035515 0.801603,-1.904939 1.410469,-3.522746 6.446691,-7.235519 -4.521277,2.52226 -5.850651,3.809334 -6.403182,4.96803 -2.146096,-1.983463 -4.289516,-3.651577 -7.068762,-4.768026 z"
           id="path1493-3"
           sodipodi:nodetypes="ccccc"
           sodipodi:insensitive="true"
           inkscape:label="path1494" /><path
           style="fill:#4b7792;fill-opacity:1;stroke:none;stroke-width:0.105807px;stroke-linecap:butt;stroke-linejoin:miter;stroke-opacity:1"
           d="m 82.390344,22.399016 c -3.186157,2.514332 -5.770955,4.78527 -7.025252,7.035515 -1.312941,-1.77549 -2.035566,-3.265746 -8.398966,-6.480866 5.747986,1.259317 7.272983,3.345103 8.355456,4.213377 2.146096,-1.983463 4.289516,-3.651577 7.068762,-4.768026 z"
           id="path1493-3-6"
           sodipodi:nodetypes="ccccc"
           sodipodi:insensitive="true"
           inkscape:label="path1495" /></g></g></g></svg>
