<?xml version="1.0" encoding="UTF-8" standalone="no"?>
<!-- Created with Inkscape (http://www.inkscape.org/) -->

<svg
   width="175.8613mm"
   height="115.95576mm"
   viewBox="0 0 175.8613 115.95577"
   version="1.1"
   id="svg5"
   xml:space="preserve"
   inkscape:version="1.2.2 (b0a8486541, 2022-12-01)"
   sodipodi:docname="trigaranus_fly.svg"
   xmlns:inkscape="http://www.inkscape.org/namespaces/inkscape"
   xmlns:sodipodi="http://sodipodi.sourceforge.net/DTD/sodipodi-0.dtd"
   xmlns="http://www.w3.org/2000/svg"
   xmlns:svg="http://www.w3.org/2000/svg"><sodipodi:namedview
     id="namedview7"
     pagecolor="#ffffff"
     bordercolor="#666666"
     borderopacity="1.0"
     inkscape:showpageshadow="2"
     inkscape:pageopacity="0.0"
     inkscape:pagecheckerboard="0"
     inkscape:deskcolor="#d1d1d1"
     inkscape:document-units="mm"
     showgrid="false"
     inkscape:zoom="0.70710678"
     inkscape:cx="290.62089"
     inkscape:cy="154.85639"
     inkscape:window-width="1115"
     inkscape:window-height="1015"
     inkscape:window-x="26"
     inkscape:window-y="23"
     inkscape:window-maximized="0"
     inkscape:current-layer="layer1" /><defs
     id="defs2" /><g
     inkscape:label="Calque 1"
     inkscape:groupmode="layer"
     id="layer1"
     transform="translate(-20.778577,-51.781798)"><g
       id="g10016"
       inkscape:label="garanus3"
       style="fill:#1b2c36;fill-opacity:1"><path
         style="fill:#1b2c36;fill-opacity:1;stroke-width:0.264583"
         d="m 134.24969,140.11755 c -0.30927,0.001 -1.10986,0.0681 -1.9265,0.16381 -1.44683,0.16951 -1.91476,0.36881 -3.175,1.35082 -1.9866,1.548 -6.75617,4.57018 -9.68003,6.13348 -4.09992,2.19209 -9.23773,5.11091 -9.78958,5.56142 -0.29103,0.23756 -0.38035,0.35616 -0.19844,0.26406 0.1819,-0.0921 0.33073,-0.0557 0.33073,0.0806 0,0.31957 2.94777,-0.29464 4.65294,-0.96945 2.69201,-1.06534 14.15584,-6.82484 18.43919,-9.26404 0.75999,-0.43279 2.15574,-1.09791 3.10162,-1.47794 0.94589,-0.38003 2.01745,-0.92341 2.38125,-1.20716 0,0 0.58918,-0.41681 0.56073,-0.49421 -0.0336,-0.0914 -2.08209,-0.0602 -2.08209,-0.0602 -1.20054,-0.0214 -2.33164,-0.0563 -2.51354,-0.0775 -0.0227,-0.003 -0.0571,-0.004 -0.10128,-0.004 z"
         id="path9994" /><path
         style="fill:#1b2c36;fill-opacity:1;stroke-width:0.264583"
         d="m 142.47606,109.79898 c -0.0512,0 -1.20096,0.78437 -2.55488,1.74305 -1.35393,0.95868 -2.62231,1.83293 -2.81844,1.94303 -0.25586,0.14361 0.37954,0.92423 2.24896,2.76314 l 2.60604,2.56315 -1.59835,-0.93224 c -0.87888,-0.51268 -2.33294,-1.52451 -3.23133,-2.24844 l -1.63349,-1.3162 -0.73742,0.6165 c -0.40553,0.33902 -1.24293,0.87312 -1.86139,1.18701 -0.61846,0.31389 -1.12448,0.67261 -1.12448,0.79736 0,0.67121 2.03758,1.4472 7.39594,2.81637 3.1083,0.79424 4.62191,1.44018 4.22971,1.80454 -0.17192,0.15971 -7.8108,-1.01821 -11.61221,-1.79059 -1.81158,-0.36808 -3.35108,-0.61198 -3.42098,-0.54208 -0.4803,0.4803 2.98966,5.07435 5.41001,7.16287 1.99969,1.72555 5.14315,3.77551 7.07088,4.61057 1.50742,0.65298 1.90353,1.04696 1.05214,1.04696 -0.25179,0 -1.11499,0.39939 -1.91823,0.8878 -0.80323,0.48841 -3.11756,1.81768 -5.14284,2.95383 -2.02528,1.13615 -4.04935,2.39967 -4.49792,2.8081 0,0 -0.30325,0.24452 -0.20062,0.43261 0.0784,0.14374 0.30914,0.0532 0.30914,0.0532 1.21859,-0.33849 4.70014,-0.28328 8.46873,0.13385 1.67349,0.18524 5.30491,0.34233 8.0698,0.34933 4.80507,0.0121 5.12913,-0.0202 7.34012,-0.73174 1.27222,-0.40945 3.17722,-1.27509 4.23333,-1.9234 6.5332,-4.01055 17.58168,-9.27639 22.41465,-10.68306 2.70581,-0.78755 8.17275,-1.58158 12.68967,-1.8433 3.19991,-0.18541 3.27153,-0.20295 2.70784,-0.65939 -0.65178,-0.52778 -3.74833,-1.30277 -5.20485,-1.30277 -0.64077,0 -1.35684,-0.27435 -2.16059,-0.82734 -1.12596,-0.77465 -1.31692,-0.81897 -3.0055,-0.69815 -1.57194,0.11247 -2.37333,0.40091 -6.25388,2.25051 -9.52452,4.53971 -14.87088,5.88652 -20.32538,5.1201 -4.88626,-0.68657 -7.74973,-3.28748 -11.53159,-10.47533 -0.91878,-1.74624 -2.07093,-3.71078 -2.56005,-4.36562 -0.48912,-0.65485 -1.30989,-1.75618 -1.82418,-2.4474 -0.51428,-0.69122 -0.97706,-1.25677 -1.02836,-1.25677 z"
         id="path9992" /><path
         style="fill:#1b2c36;fill-opacity:1;stroke-width:0.264583"
         d="m 150.92154,105.56565 c -0.0586,0 -1.05593,0.59532 -2.21692,1.32292 -1.16098,0.72761 -2.29109,1.32291 -2.51096,1.32291 -0.72399,0 -0.42095,0.71693 1.25419,2.96985 0.90951,1.2232 2.66567,4.16265 3.9026,6.53242 1.55647,2.98197 2.69704,4.80466 3.70417,5.91953 l 1.45521,1.61127 0.078,-2.49752 c 0.0429,-1.37349 -0.0476,-3.74538 -0.20051,-5.271 -0.30228,-3.01521 -0.1329,-2.62607 -3.68349,-8.4708 -0.75142,-1.23693 -1.43574,-2.51685 -1.52084,-2.84427 -0.0851,-0.32742 -0.20288,-0.59531 -0.26148,-0.59531 z"
         id="path9990" /><path
         style="fill:#1b2c36;fill-opacity:1;stroke-width:0.264583"
         d="m 126.74834,88.358948 c -0.0499,-3.42e-4 -0.0891,0.01729 -0.11628,0.05323 -0.0365,0.04817 0.0201,1.135492 0.12558,2.41639 0.15069,1.830009 0.37242,2.696082 1.03508,4.042131 0.90522,1.838758 1.47105,2.343938 3.24373,2.897498 1.17446,0.366749 3.64525,0.515634 3.64525,0.219624 0,-0.09305 -0.67509,-1.004537 -1.50017,-2.025716 -0.82507,-1.021189 -2.36691,-3.021421 -3.42614,-4.44469 -1.46888,-1.973703 -2.6011,-3.155681 -3.00705,-3.158463 z"
         id="path2220" /></g><g
       id="g10010"
       inkscape:label="garanus2"
       style="fill:#1b2c36;fill-opacity:1"><path
         style="fill:#1b2c36;fill-opacity:1;stroke-width:0.264583"
         d="m 55.301792,154.62719 c -0.130963,-0.28489 -2.936513,-0.0909 -2.936513,-0.0909 -5.496001,0.0761 -6.337519,0.2291 -8.104932,1.47227 -3.903733,2.7458 -10.653164,6.23885 -18.057812,9.34568 -1.819008,0.76322 -3.783543,1.61184 -4.365625,1.88567 l -1.058333,0.49765 2.341976,-0.15555 c 6.285511,-0.41827 12.280425,-2.65994 26.598893,-9.94616 0,0 5.71331,-2.7238 5.582346,-3.00868 z"
         id="path9986" /><path
         style="fill:#1b2c36;fill-opacity:1;stroke-width:0.264583"
         d="m 62.873682,90.36296 c -0.160111,-0.01865 -0.322614,0.277203 -0.674895,1.064534 -1.890279,4.224696 -2.652485,8.027909 -2.656685,13.257586 -0.0025,3.07787 -0.196534,2.70739 3.461287,6.61717 3.139371,3.35561 6.017862,7.60193 9.615951,14.18518 1.227697,2.24626 3.333868,5.07935 4.605404,6.19549 0.532561,0.46748 0.995064,0.85389 1.027844,0.85989 0.03278,0.005 -0.08222,-0.31709 -0.255282,-0.71726 -0.213224,-0.49305 -0.317511,-2.7746 -0.324011,-7.07761 -0.0053,-3.53518 -0.121094,-6.52592 -0.260966,-6.74687 -0.138184,-0.21828 -2.034982,-2.77813 -4.215246,-5.68855 -2.180265,-2.9104 -4.373502,-6.00604 -4.874122,-6.87916 C 66.992545,103.113 65.201866,98.246596 64.258093,94.38597 63.8044,92.530072 63.286658,90.811205 63.107776,90.566565 63.018624,90.444643 62.946459,90.371437 62.873682,90.36296 Z"
         id="path9984" /><path
         style="fill:#1b2c36;fill-opacity:1;stroke-width:0.264583"
         d="m 37.931535,87.561064 -0.362769,1.513086 c -0.641809,2.675367 -0.456165,7.601592 0.412895,10.9554 1.361182,5.25298 3.882025,8.42556 14.48077,18.22576 2.728513,2.52294 4.960937,4.69667 4.960937,4.8302 0,0.86162 -3.620387,-1.32645 -9.525,-5.75624 -1.382446,-1.03714 -3.698493,-2.76892 -5.146456,-3.84834 -1.447962,-1.07941 -3.875762,-3.17389 -5.395019,-4.6545 l -2.762105,-2.69182 0.166914,1.97714 c 0.09192,1.08737 0.47507,2.8939 0.851111,4.01474 1.652774,4.92635 3.716691,7.1658 8.94209,9.70277 3.392273,1.64697 5.22816,2.28536 11.121285,3.86643 3.238147,0.86877 5.097693,1.69881 5.503023,2.45618 0.251677,0.47027 0.202762,0.49662 -0.617016,0.33124 -1.678978,-0.33871 -5.917647,-0.91172 -7.901327,-1.06815 -2.216443,-0.17479 -5.552498,-0.85677 -9.128125,-1.86552 -4.002316,-1.12914 -3.655432,-1.09131 -3.445784,-0.37465 0.55524,1.89802 2.789192,5.00219 5.697843,7.91734 3.931998,3.94081 5.049829,4.7488 10.327535,7.4626 l 4.378028,2.25102 -1.288811,0.29766 c -1.46212,0.3375 -4.071659,1.79045 -6.520532,3.6313 -1.637721,1.2311 -4.069721,2.63081 -9.015987,5.1878 -1.382447,0.71465 -2.062322,1.18837 -1.852083,1.16634 1.912317,-0.20034 2.990776,-0.44942 6.939111,-0.44442 2.368014,0.003 7.044121,0.0969 10.391097,0.20929 3.346976,0.11236 7.990418,0.20302 10.31875,0.20102 4.062477,-0.003 4.345458,-0.0386 7.011458,-0.88573 2.67284,-0.84928 5.629038,-2.38517 8.995834,-4.6731 5.772942,-3.92308 17.316358,-9.92289 22.092708,-11.48302 3.66214,-1.19618 5.34449,-1.53341 9.31209,-1.86552 1.57207,-0.13159 4.04937,-0.42261 5.50458,-0.64699 1.45521,-0.22438 4.13411,-0.41468 5.95312,-0.42168 2.93974,-0.012 3.25122,-0.056 2.80293,-0.39533 -0.87108,-0.65925 -3.67375,-1.33587 -7.03626,-1.69912 -1.63489,-0.17662 -2.22809,-0.3795 -3.3662,-1.15186 -1.94359,-1.31899 -2.99965,-1.60963 -5.21054,-1.43299 -2.50658,0.20027 -4.0788,0.78685 -10.05003,3.74809 -8.461073,4.19599 -13.691456,5.59548 -20.002398,5.35213 -3.884601,-0.14979 -4.985304,-0.41139 -7.825362,-1.8588 -4.09741,-2.08823 -7.464639,-5.97848 -11.344011,-13.10773 -0.821187,-1.50912 -1.8947,-3.37192 -2.385901,-4.1398 -0.93192,-1.45682 -6.304812,-7.4512 -14.123685,-15.75718 -4.286172,-4.553198 -8.584799,-9.897436 -10.876339,-13.521653 z"
         id="path2212" /></g><g
       id="g10021"
       inkscape:label="garanus1"
       style="fill:#4b7792;fill-opacity:1"><path
         style="fill:#4b7792;fill-opacity:1;stroke-width:0.264583"
         d="m 101.73539,118.33955 c -1.62373,-0.002 -5.5876,0.25307 -7.12101,0.51211 -0.93882,0.11746 -2.427203,0.21937 -2.706295,0.35657 -0.455693,0.22401 -2.003082,1.57413 -3.624068,2.7311 -1.620987,1.15698 -3.559188,2.62964 -4.307231,3.27267 -0.748042,0.64304 -1.669426,1.39694 -2.04742,1.67535 -0.595848,0.43886 -0.665436,0.63839 -0.523482,1.49861 0.09954,0.60321 0.310843,0.99219 0.538985,0.99219 0.47674,0 5.819854,-2.77535 7.815027,-4.05918 0.832095,-0.53543 3.860911,-2.16214 6.730338,-3.61477 2.869429,-1.45264 5.242676,-2.784 5.366086,-2.86804 0.12305,-0.0838 0.54764,-0.30306 0.54621,-0.39894 -0.001,-0.0705 -0.12589,-0.0969 -0.66714,-0.0977 z"
         id="path10000" /><path
         style="fill:#6694ab;fill-opacity:1;stroke-width:0.264583"
         d="m 108.70293,55.590922 c -0.0629,0.0044 -0.12728,0.03891 -0.19276,0.104386 -0.58356,0.58356 -1.93291,4.37702 -2.39882,6.743258 -0.27221,1.382439 -0.57823,3.774556 -0.68006,5.315955 l -0.185,2.802413 3.57549,3.558955 c 3.91912,3.901037 5.7942,6.482087 7.74888,10.664983 1.84152,3.940746 3.77522,7.000731 5.5175,8.73125 l 1.61333,1.602486 0.0822,-2.38125 c 0.0854,-2.468328 -0.58291,-9.709558 -1.02733,-11.129037 -0.13947,-0.445499 -0.85661,-1.517061 -1.59318,-2.38125 -2.03237,-2.384497 -4.97631,-6.741732 -7.11068,-10.523388 -1.86042,-3.296287 -4.32366,-9.390126 -4.66948,-11.552784 -0.16459,-1.029274 -0.40751,-1.574968 -0.68006,-1.555977 z"
         id="path9998" /><path
         style="fill:#4b7792;fill-opacity:1;stroke-width:0.264583"
         d="m 83.752511,51.781852 c -0.07864,0.0019 -0.134923,0.05497 -0.189136,0.136943 -0.121322,0.18346 -0.200096,1.880628 -0.174667,3.771346 0.06796,5.052625 0.852739,9.057754 2.365231,12.072131 1.461019,2.911787 5.501521,7.389362 13.297896,14.737085 5.086345,4.793645 5.389375,5.221134 2.660815,3.750676 C 99.46278,85.037534 89.425563,77.674763 86.395243,75.014026 85.376598,74.119617 83.695,72.716919 82.658521,71.89742 l -1.88464,-1.489831 0.346749,1.770434 c 0.61452,3.139497 2.197361,7.082642 3.773413,9.40046 0.280919,0.41313 1.09045,1.171549 1.799373,1.685169 1.552595,1.124868 7.220168,3.943237 8.697661,4.325317 3.735508,0.966019 11.067953,3.52795 11.706783,4.09019 l 0.72863,0.640787 -0.79375,0.0041 c -2.84322,0.01603 -13.011331,-1.565415 -18.519796,-2.880444 -1.163536,-0.27777 -2.15471,-0.466279 -2.20245,-0.418579 -0.139041,0.13904 0.735187,1.727089 1.896008,3.443717 1.388604,2.053488 4.982091,5.648291 7.898743,7.90185 2.135667,1.65013 9.715145,5.98746 10.464475,5.98826 0.62066,6.9e-4 0.33262,0.4718 -0.39687,0.64906 -1.31847,0.32039 -4.3708,2.03219 -8.532815,4.78524 -2.25557,1.49199 -5.113074,3.32681 -6.35,4.07778 v 5.2e-4 c 0,0 -1.32421,0.96265 -1.142053,1.24664 0.182684,0.28482 3.25872,-0.0731 3.25872,-0.0731 2.401091,-0.10561 9.187668,-0.20182 15.081248,-0.21342 l 10.71563,-0.0207 2.64583,-0.72657 c 1.4552,-0.39961 3.30067,-0.98372 4.10104,-1.2976 1.64142,-0.6437 6.17671,-3.21747 7.06727,-4.01061 0.32197,-0.28675 0.82383,-0.65379 1.11518,-0.81545 0.29134,-0.16166 1.87329,-1.05974 3.51555,-1.99574 3.81672,-2.17533 12.95731,-6.80136 15.69516,-7.94371 4.46887,-1.864602 7.06099,-2.618064 10.04538,-2.918684 1.60073,-0.16125 3.71179,-0.466945 4.69171,-0.679545 2.19787,-0.47685 8.24751,-1.166207 10.38954,-1.183907 1.48678,-0.0123 1.31149,-0.0476 0.92604,-0.371037 -0.68708,-0.57655 -5.6722,-1.645386 -7.54062,-1.882055 -0.7276,-0.09217 -1.62437,-0.379455 -1.99264,-0.638204 -1.95957,-1.376869 -2.92039,-1.663732 -5.17023,-1.545643 -2.10545,0.11051 -2.32298,0.18798 -7.42487,2.648418 -5.70675,2.752137 -13.3019,5.714514 -16.80828,6.556197 -3.74764,0.89961 -7.49759,1.20955 -10.23245,0.84542 -3.57265,-0.47566 -5.56629,-1.19523 -8.20931,-2.963129 -4.0508,-2.709537 -5.90329,-5.065428 -9.79941,-12.460221 -2.44007,-4.631225 -2.94163,-5.260155 -9.85056,-12.352218 C 96.380011,66.930053 91.112813,60.968633 87.707825,56.484408 84.855884,52.728533 84.093296,51.77351 83.752511,51.781852 Z"
         id="path2222" /></g></g></svg>
