<?xml version="1.0" encoding="UTF-8" standalone="no"?>
<!-- Created with Inkscape (http://www.inkscape.org/) -->

<svg
   width="144.7052mm"
   height="141.32785mm"
   viewBox="0 0 144.7052 141.32785"
   version="1.1"
   id="svg6618"
   xml:space="preserve"
   inkscape:version="1.2.2 (b0a8486541, 2022-12-01)"
   sodipodi:docname="trigaranus_ground.svg"
   xmlns:inkscape="http://www.inkscape.org/namespaces/inkscape"
   xmlns:sodipodi="http://sodipodi.sourceforge.net/DTD/sodipodi-0.dtd"
   xmlns="http://www.w3.org/2000/svg"
   xmlns:svg="http://www.w3.org/2000/svg"><sodipodi:namedview
     id="namedview6620"
     pagecolor="#ffffff"
     bordercolor="#666666"
     borderopacity="1.0"
     inkscape:showpageshadow="2"
     inkscape:pageopacity="0.0"
     inkscape:pagecheckerboard="0"
     inkscape:deskcolor="#d1d1d1"
     inkscape:document-units="mm"
     showgrid="false"
     inkscape:zoom="0.69931958"
     inkscape:cx="298.14695"
     inkscape:cy="302.43683"
     inkscape:window-width="1115"
     inkscape:window-height="1015"
     inkscape:window-x="20"
     inkscape:window-y="20"
     inkscape:window-maximized="0"
     inkscape:current-layer="layer1" /><defs
     id="defs6615" /><g
     inkscape:label="Calque 1"
     inkscape:groupmode="layer"
     id="layer1"
     transform="translate(-31.907827,-34.761514)"><g
       id="g7535"
       style="fill:#1b2c36;fill-opacity:1"
       inkscape:label="ground"><path
         style="fill:#1b2c36;fill-opacity:1;stroke-width:0.264583"
         d="m 72.660117,175.97085 c -3.086372,-0.10434 -3.965794,-0.21612 -4.163136,-0.52916 -0.403228,-0.63963 -0.29913,-1.24721 0.337015,-1.96705 0.57326,-0.64868 0.761929,-0.68344 5.093229,-0.93823 2.511864,-0.14777 17.591335,-0.26573 34.151285,-0.26717 l 29.65336,-0.003 0.54222,0.59531 c 1.15481,1.26787 1.20919,1.67859 0.32121,2.42578 -0.80712,0.67915 -0.84174,0.68338 -6.01701,0.73583 -11.09423,0.11251 -56.207188,0.0728 -59.918173,-0.0527 z"
         id="path7116" /><path
         style="fill:#1b2c36;fill-opacity:1;stroke-width:0.250359"
         d="m 127.65705,164.67393 c 9.71777,0.0102 23.55822,0.002 30.75653,-0.0173 l 13.08785,-0.0359 0.71151,0.87005 c 0.88445,1.0815 0.89487,1.64638 0.0478,2.59243 -0.55867,0.62396 -0.92421,0.76589 -2.30977,0.89685 -1.97227,0.18641 -124.394515,0.0986 -127.400487,-0.0913 l -3.4e-5,3.3e-4 c -2.000617,-0.12644 -2.123672,-0.17049 -2.783563,-0.99636 -0.851797,-1.06605 -0.854692,-1.24212 -0.03548,-2.15707 l 0.654938,-0.73148 5.208312,-0.16754 c 2.864571,-0.0922 10.911656,-0.1588 17.88241,-0.14811 6.970754,0.0107 17.338046,0.008 23.03843,-0.007 l 11.720527,-0.0205 5.054797,-0.006 5.25781,0.0458 z"
         id="path9719" /></g><g
       id="g7527"
       style="fill:#1b2c36;fill-opacity:1"
       inkscape:label="garanus2"><path
         style="fill:#1b2c36;fill-opacity:1;stroke-width:0.264583"
         d="m 57.846082,120.47017 c -0.303522,0 -0.09038,1.16239 1.046447,5.71334 2.604781,10.42742 2.51871,9.6018 2.51871,24.22126 v 12.9279 c 0,0 0.868638,0.18314 1.309329,0.18311 0.440279,-3e-5 1.308082,-0.18311 1.308082,-0.18311 l 0.0801,-17.13177 0.08062,-17.13178 -1.147217,-2.35489 c -1.571097,-3.22526 -2.201032,-4.11197 -3.736206,-5.25808 -0.726231,-0.54218 -1.38332,-0.98598 -1.459859,-0.98598 z"
         id="path7523"
         sodipodi:nodetypes="ssscsccccsss" /><path
         style="fill:#1b2c36;fill-opacity:1;stroke-width:0.264583"
         d="m 50.573657,58.853772 c -1.817695,-0.0224 -3.02932,0.52855 -4.449857,1.947685 -0.982912,0.981939 -1.845058,1.555132 -2.910417,1.935282 -1.831486,0.653529 -8.721947,2.809521 -10.377144,3.24683 -2.38046,0.62896 -0.239844,0.648152 7.07657,0.06356 8.814624,-0.704299 9.644544,-0.62548 11.352796,1.081588 1.308111,1.307209 1.65393,2.809749 1.225248,5.323706 -0.301321,1.767068 -2.351295,7.618179 -3.381706,9.651607 -0.919479,1.814499 -3.206219,8.607538 -3.696415,10.980725 -0.234526,1.135409 -0.40566,3.320662 -0.40566,5.18263 0,4.315235 0.647277,7.112905 2.563668,11.077365 1.395497,2.88686 1.616416,3.18062 4.6762,6.22339 2.333205,2.32024 3.68142,3.43765 4.930965,4.08709 0.945885,0.49161 2.514998,1.36122 3.487126,1.93218 l 1.767851,1.03818 3.204455,6.46162 c 1.762604,3.55403 3.378421,6.95354 3.590479,7.55458 0.31732,0.89938 0.385506,3.35851 0.385506,13.89217 v 12.79871 c 0,0 0.876719,0.21478 1.323677,0.21406 0.438297,-7e-4 1.297352,-0.21406 1.297352,-0.21406 l 0.08165,-12.23698 0.08165,-12.23698 -0.703833,-1.5875 c -0.986958,-2.2273 -1.208057,-3.05398 -1.672249,-6.2513 -0.536728,-3.69691 -0.529393,-10.00936 0.0155,-13.21521 0.718047,-4.22459 3.050925,-10.52627 4.509285,-12.18169 0.33334,-0.37839 0.26153,-0.52879 -0.621151,-1.3038 -1.285294,-1.1285 -6.389307,-3.53242 -10.876338,-5.122683 -1.936801,-0.686429 -4.050929,-1.475325 -4.698421,-1.752864 -1.76141,-0.75503 -3.628501,-2.645078 -4.504635,-4.560446 -0.68323,-1.493648 -0.752619,-1.911999 -0.734839,-4.427636 0.02198,-3.111217 0.317708,-4.542541 2.048454,-9.921875 2.180951,-6.778584 2.76702,-10.198752 2.275313,-13.276709 -0.589932,-3.692837 -2.851442,-6.073299 -6.042525,-6.359819 -0.286785,-0.02575 -0.558884,-0.04021 -0.818555,-0.04341 z"
         id="path7144"
         sodipodi:nodetypes="ssscssssssssscccsscsccccsssssssssssss" /></g><g
       id="g7531"
       style="fill:#1b2c36;fill-opacity:1"
       inkscape:label="garanus3"><path
         style="fill:#1b2c36;fill-opacity:1;stroke-width:0.264583"
         d="m 150.9975,120.47017 c -0.54653,0 -2.41101,1.35322 -2.73006,1.98127 -0.22271,0.43841 -1.10397,1.94704 -1.95854,3.35277 l -1.55391,2.55591 v 17.48627 17.48628 c 0,0 0.7331,0.27827 1.11694,0.28011 0.36251,0.002 1.05737,-0.25443 1.05737,-0.25443 0,0 0.39423,-6.9639 0.43793,-16.61485 0.0371,-8.18994 0.37517,-11.78158 1.50275,-15.95458 1.4084,-5.21227 2.46119,-10.31875 2.12752,-10.31875 z"
         id="path7519"
         sodipodi:nodetypes="ssccccscsss" /><path
         style="fill:#1b2c36;fill-opacity:1;stroke-width:0.264583"
         d="m 158.22238,58.810881 c -0.80766,0.02787 -1.63942,0.241554 -2.48718,0.642338 -2.59635,1.227428 -3.85372,3.395252 -4.04885,6.980969 -0.14938,2.745157 0.11273,4.113265 2.14044,11.173478 l 1.63401,5.688542 0.005,4.101041 c 0.005,3.989326 -0.0151,4.139954 -0.73898,5.514392 -1.6055,3.048367 -3.21534,4.246153 -8.25169,6.140711 -4.08712,1.537478 -9.58066,4.312378 -11.77396,5.946928 -4.23318,3.15478 -6.78181,6.17924 -9.49658,11.27114 -3.30565,6.20018 -4.19928,12.17939 -2.82721,18.91409 1.2956,6.35938 1.68987,7.38646 1.70067,4.43177 0.0125,-3.42475 1.63417,-8.40426 4.31136,-13.23691 1.40131,-2.52953 1.8322,-2.84964 1.29708,-0.96377 -0.49651,1.74984 -0.65518,7.49877 -0.27905,10.1229 0.18876,1.31689 0.43006,2.39417 0.53588,2.39417 0.10582,0 0.26799,-0.47167 0.36019,-1.04852 0.20077,-1.25557 1.89701,-4.55919 3.46955,-6.75669 1.57036,-2.19443 5.50481,-5.96037 5.62653,-5.38572 0.16638,0.7855 -1.49633,9.10812 -2.24534,11.23859 l -0.73329,2.08463 0.078,12.63385 0.12192,12.57674 c 0,0 0.7961,0.27732 1.13931,0.29078 0.48433,0.019 1.34075,-0.17686 1.34075,-0.17686 0.0715,0.0441 0.11371,-5.58556 0.12701,-12.76869 l 0.0243,-13.06018 3.53776,-7.15616 c 1.94599,-3.93585 3.78167,-7.54918 4.07934,-8.03 0.39926,-0.64491 1.11253,-1.13744 2.71922,-1.8774 5.21396,-2.40128 10.93084,-8.49992 12.9222,-13.78521 0.30155,-0.80036 0.78766,-2.52677 1.08056,-3.83646 1.05399,-4.712855 0.27302,-10.826937 -2.18023,-17.065621 -3.33741,-8.487151 -4.73841,-13.057217 -4.74441,-15.478125 -0.005,-2.027508 0.59458,-3.248258 1.9792,-4.026627 1.29447,-0.7277 3.84477,-0.797372 8.21914,-0.224793 4.42436,0.57912 10.11268,0.823019 9.72964,0.417029 -0.38961,-0.41295 -10.56693,-3.684532 -11.50059,-3.696932 -0.51212,-0.0068 -1.03089,-0.402238 -1.96887,-1.500167 -1.46431,-1.713991 -3.12569,-2.550563 -4.90255,-2.489253 z"
         id="path7140"
         sodipodi:nodetypes="ssscccsssssssssscssccccsccccsssssssssssss" /></g><g
       id="g9723"
       inkscape:label="garanus1"
       style="fill:#4b7792;fill-opacity:1"><path
         style="fill:#6694ab;fill-opacity:1;stroke-width:0.264583"
         d="m 106.14949,163.60824 -0.15113,-17.27521 c -0.0882,-10.07732 -0.18485,-19.92974 -0.21487,-21.89427 l -0.0546,-3.57187 1.69459,-2.91042 c 2.41206,-4.14262 2.73965,-4.58373 4.1475,-5.58468 0.69279,-0.49255 1.30092,-0.85425 1.3514,-0.80377 0.0505,0.0505 -0.33,2.34197 -0.84552,5.0922 -0.51551,2.75023 -1.31666,7.08401 -1.78032,9.63063 l -0.84302,4.6302 -0.0322,16.86719 -0.0303,15.87066 c 0,0 -1.00028,0.27716 -1.56956,0.26878 -0.57231,-0.008 -1.67197,-0.31944 -1.67197,-0.31944 z"
         id="path9717" /><path
         style="fill:#4b7792;fill-opacity:1;stroke-width:0.264583"
         d="m 95.087339,163.58124 -0.367075,-7.98779 c -0.228801,-4.97886 -0.111699,-12.03854 -0.213463,-15.67656 -0.181806,-6.49939 -0.174138,-6.64684 0.440346,-8.46667 0.868302,-2.57152 2.09223,-7.74558 2.571864,-10.87235 0.221162,-1.44177 0.480917,-2.91906 0.577231,-3.28286 0.165462,-0.62498 0.147293,-0.63849 -0.329441,-0.24496 -3.483147,2.87523 -4.424653,3.72653 -5.712253,5.16499 -1.907315,2.13078 -2.806396,3.44523 -4.054681,5.92789 -1.26514,2.51618 -1.982415,4.59504 -1.982415,5.74558 0,1.29539 -0.380987,0.87341 -0.940808,-1.04205 -0.697788,-2.38752 -0.657611,-9.68476 0.07161,-13.00638 0.586031,-2.66937 0.534099,-2.64083 -1.537893,0.84523 -2.190234,3.685 -3.115987,5.73316 -3.936793,8.70987 -0.850876,3.08574 -1.621123,8.6519 -1.397127,10.09627 0.231179,1.49067 -0.344477,0.74176 -1.24745,-1.62288 -1.389194,-3.63794 -1.940615,-7.45369 -1.959882,-13.5621 -0.01545,-4.89927 0.03617,-5.50194 0.696145,-8.12732 1.38298,-5.50148 2.9172,-8.81976 6.60356,-14.28248 2.968654,-4.399164 6.345465,-7.678094 11.321553,-10.993374 2.596387,-1.72983 5.515202,-3.18289 10.783003,-5.36806 5.50253,-2.28255 7.97102,-3.70085 9.7097,-5.57884 1.60595,-1.73461 2.42874,-3.34828 2.94214,-5.7701 0.87534,-4.12918 0.27529,-7.77451 -2.8121,-17.08399 -2.32776,-7.01893 -2.91667,-9.54754 -2.95783,-12.7 -0.0696,-5.3333 3.20027,-9.25248 8.0066,-9.59637 2.8313,-0.20258 3.98097,0.23662 6.24237,2.38473 1.89529,1.80033 1.9459,1.82757 4.77845,2.57126 1.57458,0.41341 3.93444,1.07039 5.24413,1.45996 1.30969,0.38957 3.42305,1.01351 4.69635,1.38655 1.27331,0.37303 2.31511,0.78043 2.31511,0.90533 0,0.34045 -3.33687,0.2756 -10.01668,-0.19466 -7.66123,-0.53935 -10.3166,-0.44452 -12.07876,0.43139 -1.71462,0.85228 -2.29536,1.87776 -2.4461,4.31942 -0.16168,2.6186 0.34392,4.5233 2.87266,10.82198 1.18225,2.94479 2.72302,6.78291 3.42393,8.52916 2.13146,5.31029 3.12123,9.15878 3.43792,13.36755 0.79136,10.51722 -1.96113,17.82104 -9.79922,26.002554 -2.74525,2.86552 -4.07574,3.86529 -7.10787,5.34106 -2.49895,1.21626 -2.98729,1.70638 -4.10132,4.1162 -0.36701,0.79391 -1.07184,2.15784 -1.56628,3.03097 -2.58186,4.55927 -3.76986,6.7743 -5.593693,10.42947 l -2.003761,4.01574 v 15.46541 l -0.06136,14.45846 c 0,0 -0.812436,0.21103 -1.226767,0.20201 -0.43709,-0.01 -1.283652,-0.26921 -1.283652,-0.26921 z"
         id="path7136" /></g></g></svg>
